<?xml version="1.0" standalone="no"?>
<!DOCTYPE svg PUBLIC "-//W3C//DTD SVG 20010904//EN"
 "http://www.w3.org/TR/2001/REC-SVG-20010904/DTD/svg10.dtd">
<svg version="1.0" xmlns="http://www.w3.org/2000/svg"
 width="619.000000pt" height="619.000000pt" viewBox="0 0 619.000000 619.000000"
 preserveAspectRatio="xMidYMid meet">
<metadata>
Created by potrace 1.11, written by Peter Selinger 2001-2013
</metadata>
<g transform="translate(0.000000,619.000000) scale(0.100000,-0.100000)"
fill="#000000" stroke="none">
<path d="M980 6109 c-139 -107 -160 -119 -196 -119 -31 0 -31 1 -161 -149 -44
-50 -25 -50 110 1 84 32 107 49 107 78 0 23 55 70 214 184 l119 86 -44 0 c-40
0 -54 -8 -149 -81z"/>
<path d="M2544 6165 c-9 -14 -14 -28 -11 -32 4 -3 9 1 12 9 4 9 14 14 23 12 9
-2 28 5 42 16 l25 20 -37 0 c-29 0 -41 -6 -54 -25z"/>
<path d="M3250 6175 c-8 -9 -8 -15 -2 -15 12 0 26 19 19 26 -2 2 -10 -2 -17
-11z"/>
<path d="M4241 6144 c-12 -25 -26 -76 -32 -113 -6 -36 -25 -106 -42 -156 -16
-49 -38 -124 -49 -165 -10 -41 -20 -79 -21 -85 -8 -30 -16 -34 -150 -71 l-58
-16 25 -19 c28 -22 66 -24 119 -5 41 15 51 2 12 -16 -28 -12 -33 -28 -10 -28
20 0 19 -16 -1 -24 -9 -3 -29 2 -45 11 -27 16 -31 16 -64 0 -34 -16 -55 -16
-55 2 0 4 10 12 22 18 23 10 22 10 -9 26 -35 18 -83 22 -98 8 -6 -5 -33 -16
-61 -25 -51 -17 -52 -17 -44 -49 7 -34 48 -118 60 -127 4 -3 12 -21 18 -40 6
-19 23 -69 37 -110 15 -41 31 -97 35 -124 5 -27 13 -52 17 -55 29 -21 121
-218 137 -293 6 -26 4 -28 -22 -28 -34 0 -136 34 -170 56 -13 9 -26 13 -29 11
-10 -11 139 -85 273 -137 14 -5 25 -24 34 -57 7 -26 19 -55 26 -64 8 -8 25
-53 39 -100 30 -100 47 -135 64 -131 7 1 10 -2 7 -7 -3 -5 1 -15 10 -22 23
-19 46 -67 33 -71 -6 -2 -4 -18 7 -43 9 -22 21 -51 27 -65 6 -14 9 -29 8 -33
-1 -5 7 -23 19 -41 21 -35 35 -106 20 -106 -5 0 -19 4 -32 9 -13 4 -43 11 -68
15 -43 6 -42 5 35 -32 44 -21 92 -43 106 -49 20 -9 35 -34 72 -124 56 -140 59
-153 31 -155 -12 -1 -27 -4 -33 -9 -7 -4 -24 -9 -39 -11 -22 -4 -31 1 -45 25
-9 16 -17 34 -17 39 0 9 -11 42 -20 62 -1 3 -6 29 -11 59 -6 41 -16 61 -43 87
-19 19 -41 34 -48 34 -8 0 -20 9 -28 19 -7 11 -17 18 -22 15 -4 -3 -8 -1 -8 5
0 5 -19 24 -42 43 -23 18 -39 28 -35 21 8 -13 -58 11 -80 29 -15 12 -18 32 -4
24 5 -4 7 3 4 14 -3 11 -16 23 -29 26 -13 3 -24 11 -24 17 0 5 -17 25 -38 43
-42 36 -88 123 -153 290 -23 60 -46 113 -50 118 -5 6 -9 16 -9 24 0 14 -44
111 -69 151 -9 13 -16 31 -18 40 -1 14 0 13 11 -1 7 -10 20 -18 29 -18 9 0 19
-11 23 -24 3 -13 25 -43 50 -67 24 -24 44 -49 44 -56 0 -15 21 -55 34 -64 5
-4 5 -12 2 -18 -4 -6 -2 -11 4 -11 6 0 10 -10 9 -22 -4 -34 12 -108 23 -108 5
0 6 -4 3 -10 -3 -5 0 -10 7 -10 10 0 9 -3 -1 -9 -12 -8 -10 -12 12 -22 14 -6
24 -15 22 -20 -3 -4 -1 -10 5 -14 6 -4 8 -11 5 -16 -16 -24 14 -4 41 29 52 63
58 79 44 126 -20 67 -40 100 -53 87 -20 -20 -27 -12 -27 32 0 43 -32 127 -48
127 -4 0 -15 16 -23 37 -16 42 -50 60 -128 67 -56 6 -74 13 -66 26 3 4 -9 13
-27 19 -34 12 -52 6 -28 -9 12 -8 9 -10 -10 -10 -14 0 -33 -9 -43 -20 -11 -13
-29 -20 -53 -20 -29 0 -44 -8 -76 -40 -33 -33 -39 -44 -34 -66 6 -22 4 -25
-13 -19 -17 5 -21 0 -27 -29 -3 -20 -11 -36 -17 -36 -19 0 -36 -35 -37 -77 0
-40 -11 -55 -24 -34 -7 11 -84 -5 -103 -21 -7 -6 -13 -19 -13 -30 0 -10 -7
-21 -15 -24 -9 -4 -15 -19 -15 -35 0 -31 -6 -35 -30 -18 -11 8 -12 12 -2 16 6
2 12 11 12 19 0 8 7 26 16 40 28 42 34 287 8 315 -10 11 -12 19 -5 24 6 3 19
-8 29 -25 l19 -30 13 40 c10 31 11 46 2 65 -15 33 -34 33 -26 0 5 -20 3 -24
-9 -19 -8 3 -18 1 -22 -5 -3 -6 -12 -11 -18 -11 -7 0 -4 7 7 15 15 12 17 22
12 57 -4 23 -4 39 0 35 4 -4 13 -2 19 3 9 8 14 6 19 -5 3 -8 10 -15 16 -15 6
0 9 4 6 9 -3 4 4 17 15 27 16 14 19 25 14 55 -6 35 -5 38 19 41 30 4 22 26
-12 33 -40 7 -44 15 -40 71 3 43 1 58 -14 70 -9 9 -15 21 -12 25 3 5 0 9 -5 9
-6 0 -11 -5 -11 -10 0 -6 -10 -8 -24 -4 -13 3 -32 2 -43 -4 -22 -11 -62 7 -55
26 2 6 -1 12 -7 12 -6 0 -17 14 -26 30 -9 17 -13 30 -9 30 4 0 1 6 -5 14 -9
11 -9 15 1 19 7 2 10 8 6 12 -4 4 -13 3 -20 -1 -16 -11 -51 -12 -58 -2 -3 4
-22 2 -42 -5 -35 -12 -36 -14 -24 -42 15 -39 14 -60 -3 -60 -14 0 -25 15 -35
48 -4 12 -16 17 -46 17 -53 0 -113 -53 -152 -135 -33 -71 -36 -115 -8 -140 11
-10 20 -23 20 -28 0 -6 -10 -1 -23 11 -13 12 -29 22 -37 22 -9 0 -7 -5 6 -14
18 -14 18 -15 -8 -21 -15 -4 -30 -16 -33 -26 -4 -11 -11 -17 -16 -14 -12 8
-11 -71 2 -119 7 -27 13 -35 19 -26 5 8 8 -1 7 -24 -1 -29 5 -42 23 -57 14
-10 20 -19 13 -19 -6 0 -15 5 -18 10 -12 20 -22 0 -29 -59 -8 -68 -37 -116
-67 -108 -12 3 -33 -7 -56 -28 -45 -40 -62 -32 -35 16 17 30 24 34 60 34 46 1
71 23 72 63 0 36 -31 82 -56 82 -31 0 -71 23 -66 38 5 16 -38 32 -58 22 -8 -5
-25 -18 -37 -30 -13 -11 -23 -17 -23 -13 0 4 -5 2 -12 -5 -18 -18 -28 -15 -28
9 0 19 -1 19 -16 5 -8 -9 -22 -16 -31 -16 -13 0 -13 -3 -3 -15 16 -19 7 -30
-17 -20 -26 12 -34 12 -67 3 -37 -10 -46 -2 -20 17 18 13 17 14 -13 12 -17 -1
-29 -5 -27 -8 2 -4 -4 -13 -13 -20 -13 -11 -17 -11 -20 -1 -8 23 -21 12 -27
-23 -5 -24 -14 -39 -29 -44 -12 -5 -35 -22 -50 -39 -22 -23 -27 -35 -22 -55
10 -38 -45 -101 -110 -126 -27 -11 -65 -27 -83 -36 -18 -9 -39 -14 -48 -11
-13 5 -13 9 1 30 15 23 82 43 125 37 19 -2 62 37 58 51 -5 15 -99 17 -135 2
-18 -7 -33 -20 -33 -29 0 -9 -4 -13 -10 -10 -5 3 -7 0 -5 -8 3 -7 -3 -24 -15
-37 -25 -28 -26 -56 -3 -69 15 -8 16 -12 6 -22 -11 -11 -13 -10 -13 0 0 8 -13
-3 -30 -24 -16 -21 -30 -41 -30 -45 0 -4 -6 -10 -14 -13 -13 -5 -13 -1 0 35 8
22 14 42 14 44 0 1 -13 -9 -29 -24 -38 -34 -69 -120 -49 -134 9 -7 8 -8 -5 -4
-10 3 -21 6 -23 6 -2 0 -4 19 -5 43 0 23 -7 60 -14 82 l-14 40 4 -40 c2 -22 7
-87 11 -145 7 -114 13 -133 53 -168 21 -19 22 -22 6 -16 -11 4 -34 8 -52 10
-25 1 -30 -1 -26 -15 4 -10 -2 -8 -17 8 -22 22 -22 28 -15 110 10 107 14 221
8 221 -3 0 -13 -10 -24 -22 -15 -18 -18 -40 -19 -106 0 -113 19 -272 36 -299
17 -27 18 -41 3 -26 -8 8 -16 6 -29 -7 -10 -10 -24 -20 -31 -23 -12 -5 -11 -8
1 -16 66 -43 88 -61 112 -96 46 -65 52 -83 14 -40 -48 54 -45 41 9 -42 40 -61
51 -83 42 -83 -2 0 -22 29 -45 64 -24 35 -51 71 -62 81 -11 10 -17 22 -14 27
11 18 -19 37 -96 63 -110 35 -190 31 -190 -10 0 -15 13 -20 73 -31 20 -3 40
-10 43 -15 3 -5 24 -19 47 -31 23 -12 36 -23 29 -25 -6 -3 -33 7 -58 21 -52
29 -70 32 -78 14 -5 -10 -7 -10 -12 0 -3 6 -10 9 -15 6 -6 -3 -21 1 -34 10
-22 15 -27 15 -58 0 -36 -17 -67 -59 -67 -92 0 -10 -14 -37 -31 -58 -17 -22
-49 -66 -72 -98 l-40 -59 126 7 c117 6 129 5 169 -15 43 -22 168 -142 168
-161 0 -6 -31 19 -70 55 -112 106 -150 120 -276 101 -94 -14 -154 -5 -154 23
0 7 -7 13 -15 13 -17 0 -35 -30 -35 -57 0 -11 -16 -34 -35 -53 -19 -19 -35
-38 -35 -42 0 -4 26 -8 58 -8 42 0 70 -7 105 -26 43 -22 196 -134 184 -134
-13 0 -96 42 -106 53 -6 8 -30 22 -53 32 -24 10 -51 25 -60 33 -24 20 -168 17
-184 -3 -6 -8 -36 -24 -68 -35 -32 -12 -55 -24 -53 -27 3 -2 42 5 87 18 99 26
178 22 239 -12 51 -28 52 -36 5 -31 -25 3 -38 10 -41 23 -10 39 -180 21 -219
-22 -11 -12 -21 -16 -28 -10 -6 5 -21 5 -33 0 -17 -6 -23 -16 -23 -38 0 -16 5
-33 10 -36 8 -5 7 -11 0 -20 -7 -8 -9 -23 -5 -34 6 -20 -18 -80 -39 -93 -18
-13 -32 -8 -16 5 8 7 23 24 33 40 15 23 16 28 3 33 -15 6 -53 -10 -71 -30 -30
-34 -43 -53 -50 -74 -7 -23 -7 -23 25 -7 31 16 105 23 117 11 9 -9 -27 -98
-51 -125 -20 -23 -20 -24 -1 -17 15 5 17 4 8 -5 -6 -6 -16 -8 -21 -5 -6 4 1
27 19 59 36 65 38 92 7 83 -13 -3 -30 -6 -38 -6 -9 0 -35 -12 -58 -27 -60 -39
-57 -77 8 -107 l35 -15 -40 6 c-22 3 -44 11 -48 17 -5 6 -6 -9 -3 -34 6 -42 5
-44 -9 -25 -13 17 -17 18 -25 6 -6 -10 -1 -24 16 -44 34 -40 30 -56 -6 -22
-28 27 -32 28 -82 19 -70 -12 -86 -8 -91 24 l-4 27 -2 -29 c-1 -19 -5 -26 -14
-23 -7 3 -18 -3 -25 -13 -9 -14 -6 -20 16 -30 l27 -13 -27 -9 -28 -10 0 -126
0 -127 43 85 c50 100 73 117 175 126 45 4 69 11 65 17 -4 7 1 8 13 3 10 -4 33
-10 49 -13 64 -11 141 -36 157 -50 10 -9 23 -13 31 -10 8 3 20 1 28 -4 12 -7
12 -9 -1 -9 -9 0 -5 -6 10 -17 63 -41 90 -76 90 -114 0 -21 6 -40 13 -43 6 -3
1 -4 -12 -3 -73 7 -1 -61 105 -97 55 -20 63 -25 38 -25 -16 -1 -35 4 -42 11
-14 14 -83 -4 -101 -26 -9 -11 -2 -15 39 -20 27 -4 71 -16 97 -27 57 -25 83
-31 83 -19 0 4 8 6 19 3 22 -6 38 26 19 39 -10 6 -7 10 10 14 15 4 22 14 22
30 0 23 -31 49 -44 37 -3 -3 -6 -1 -6 6 0 8 8 11 20 8 27 -7 27 27 0 70 -23
39 -48 53 -120 69 l-55 12 50 1 c63 1 125 40 125 77 0 15 -93 44 -119 37 -10
-3 -22 0 -25 6 -5 7 2 11 17 11 14 0 45 16 69 36 51 43 59 58 24 44 -17 -6
-35 -6 -55 1 -25 9 -33 19 -41 52 -6 23 -19 64 -30 91 -11 27 -16 54 -12 60 5
6 17 33 26 60 15 38 26 51 53 63 48 20 50 12 5 -24 -58 -47 -69 -91 -46 -188
21 -89 44 -113 91 -98 35 12 53 47 61 121 l7 57 5 -50 c5 -46 7 -50 30 -47 55
8 70 27 71 95 0 44 3 56 9 42 5 -11 9 -33 9 -49 1 -25 3 -27 17 -15 13 11 15
26 11 79 -4 53 -3 60 6 38 6 -16 13 -28 16 -27 3 0 28 27 55 60 45 54 76 74
76 49 0 -5 4 -10 10 -10 16 0 40 57 40 97 0 28 3 34 10 23 5 -8 10 -25 10 -37
0 -17 9 -25 39 -34 80 -24 114 5 129 111 l10 65 1 -63 c1 -72 14 -78 43 -21
12 23 18 57 18 108 0 60 4 78 20 95 11 12 37 41 58 65 46 55 108 101 137 101
11 0 35 13 51 30 22 20 37 27 52 23 22 -5 25 -12 37 -70 3 -18 16 -44 27 -58
11 -14 16 -25 11 -24 -23 4 -30 -3 -25 -26 2 -14 8 -22 13 -20 4 3 15 -5 24
-19 11 -16 22 -22 35 -19 17 4 20 0 20 -25 0 -17 3 -39 6 -49 6 -17 6 -17 -8
1 -15 18 -15 18 -21 -3 -7 -27 -34 -27 -42 0 -4 11 -9 19 -11 16 -3 -2 -1 -15
4 -28 5 -13 6 -33 2 -45 -8 -19 -5 -21 26 -17 34 3 35 3 23 -19 -6 -13 -20
-31 -30 -41 -11 -10 -19 -27 -19 -39 l0 -22 20 22 c12 12 30 22 40 22 11 0 20
6 20 14 0 8 5 18 11 22 8 5 10 -19 5 -87 -12 -165 -16 -187 -37 -192 -10 -3
-22 0 -25 5 -4 6 -14 -5 -22 -23 -20 -45 -22 -58 -11 -65 5 -3 9 1 10 8 1 17
49 -82 49 -101 0 -11 -4 -9 -15 5 -13 16 -14 17 -9 1 4 -10 23 -26 43 -37 31
-17 33 -19 14 -21 -13 -1 -28 -2 -34 -3 -14 -1 -38 -46 -39 -72 0 -11 -16 -34
-35 -50 -19 -16 -42 -46 -50 -67 -8 -21 -22 -40 -30 -43 -8 -4 -13 -9 -10 -14
2 -4 -14 -38 -36 -75 -46 -75 -66 -119 -73 -159 -3 -15 -9 -33 -14 -39 -5 -7
-19 -38 -32 -70 -13 -32 -29 -64 -36 -71 -27 -28 -81 -123 -87 -154 -4 -19 -4
-45 -1 -58 5 -21 9 -22 28 -12 11 6 24 15 27 20 3 5 24 8 45 6 l39 -3 -41 -40
c-23 -22 -56 -52 -72 -68 -17 -15 -29 -33 -26 -41 3 -7 -2 -19 -11 -26 -11 -9
-12 -16 -5 -25 8 -10 4 -18 -16 -34 -14 -11 -31 -18 -37 -14 -6 3 -7 1 -3 -5
4 -6 -4 -21 -16 -32 -13 -11 -30 -28 -38 -37 -8 -9 -26 -26 -39 -37 -14 -12
-59 -55 -102 -96 -106 -103 -199 -187 -228 -207 -18 -12 -37 -14 -85 -10 -77
8 -198 26 -204 32 -10 9 12 68 36 97 15 18 21 29 15 24 -19 -11 -16 17 5 45
10 13 28 57 41 98 18 58 32 83 69 120 26 25 47 51 47 58 0 6 20 33 43 59 24
25 40 49 35 53 -17 12 -8 41 25 75 17 19 32 40 32 48 -1 8 -6 6 -15 -6 -8 -11
-18 -17 -21 -13 -4 4 -2 13 4 20 7 8 9 17 5 21 -4 3 6 20 22 36 34 35 26 38
-21 9 l-34 -21 0 22 c0 17 -5 20 -27 18 -23 -3 -28 2 -34 27 l-6 30 -8 -28
c-5 -19 -12 -26 -22 -23 -9 4 -13 -1 -12 -17 1 -12 1 -38 0 -57 -2 -33 -2 -34
-16 -16 -14 18 -15 15 -15 -35 -1 -50 -2 -52 -15 -35 -14 18 -15 16 -15 -32 0
-46 -12 -70 -22 -42 -2 6 -4 -15 -4 -47 -2 -49 -11 -76 -61 -178 -33 -66 -77
-157 -98 -202 -21 -46 -48 -89 -60 -97 -33 -21 -173 -45 -293 -50 -67 -3 -112
18 -112 50 0 8 -5 12 -10 9 -6 -3 -10 -2 -10 3 0 5 -7 9 -15 9 -8 0 -15 -4
-15 -9 0 -4 -8 -8 -18 -8 -14 0 -17 -7 -14 -39 3 -28 0 -40 -12 -44 -17 -7
-20 -3 -30 44 -3 15 -17 34 -31 43 l-26 17 16 -31 c17 -33 13 -52 -9 -44 -22
8 -29 -30 -16 -91 9 -42 15 -53 27 -48 8 3 19 0 24 -8 14 -23 10 -32 -11 -26
-11 3 -20 1 -20 -4 0 -5 4 -9 9 -9 5 0 11 -10 14 -22 8 -28 -18 -58 -44 -51
-17 5 -18 1 -13 -25 5 -25 1 -38 -20 -62 -25 -30 -26 -37 -26 -142 0 -122 0
-122 62 -54 22 26 28 28 42 17 9 -8 16 -22 16 -32 0 -23 8 -24 30 -4 29 26 47
9 53 -48 4 -40 1 -60 -14 -84 l-18 -33 44 0 c45 0 45 0 45 -35 0 -20 -9 -53
-20 -75 -11 -22 -20 -42 -20 -45 0 -3 1343 -5 2985 -5 l2985 0 -1 2168 c-1
1444 -4 2152 -11 2122 -10 -46 -51 -100 -75 -100 -7 0 -23 -11 -35 -25 -45
-52 -143 -16 -169 62 -6 21 -18 47 -26 58 -14 19 -15 19 -8 -5 5 -19 4 -22 -4
-10 -6 8 -11 23 -11 33 0 10 -4 15 -10 12 -5 -3 -10 0 -10 8 0 7 -6 14 -13 14
-9 0 -12 -9 -10 -26 4 -25 4 -25 -11 -7 -9 11 -39 92 -66 180 -28 89 -71 222
-96 296 -64 190 -77 245 -70 310 12 103 38 245 53 280 8 19 32 104 53 189 26
101 46 161 60 176 11 12 17 24 14 28 -4 3 5 20 20 37 18 22 24 38 20 55 -3 14
1 34 13 51 10 16 13 25 6 21 -23 -14 -21 10 3 54 l25 44 -35 -34 c-20 -19 -36
-29 -36 -22 0 8 -7 10 -20 6 -15 -5 -20 -2 -20 12 0 15 -2 14 -16 -5 -8 -12
-13 -26 -10 -31 4 -5 0 -12 -6 -14 -10 -4 -10 -6 0 -6 6 -1 12 -6 12 -12 0 -6
-7 -8 -16 -5 -12 4 -15 2 -10 -9 3 -8 9 -23 13 -32 5 -12 2 -15 -8 -11 -12 5
-14 -1 -11 -24 3 -21 1 -29 -7 -24 -6 4 -11 3 -11 -3 0 -5 5 -13 11 -17 15 -9
9 -43 -39 -222 -22 -84 -39 -159 -36 -167 3 -7 -6 -37 -19 -67 -14 -29 -30
-70 -37 -91 -7 -23 -16 -35 -21 -30 -5 5 -21 49 -35 99 -29 99 -31 104 -43 85
-7 -10 -13 -10 -29 -2 -25 13 -69 14 -76 2 -3 -5 1 -12 10 -15 11 -4 15 -17
13 -44 -2 -21 0 -43 4 -49 4 -7 -2 -18 -13 -26 -20 -14 -20 -15 15 -38 31 -21
55 -62 43 -74 -2 -2 -35 7 -73 20 -73 25 -105 30 -105 17 0 -15 24 -32 46 -32
13 0 25 -4 28 -9 3 -4 33 -18 67 -30 54 -20 63 -28 80 -64 10 -23 19 -64 19
-90 0 -54 -27 -160 -39 -152 -5 2 -6 -7 -3 -22 4 -19 2 -24 -8 -18 -10 6 -11
0 -7 -26 3 -20 -3 -62 -15 -103 -19 -68 -19 -70 -2 -83 23 -17 157 -136 200
-178 30 -29 64 -109 51 -121 -3 -3 -15 0 -27 6 -29 15 -50 6 -50 -22 1 -20 2
-21 11 -5 15 25 32 21 52 -14 14 -26 15 -34 5 -47 -11 -13 -10 -14 9 -8 27 9
44 -19 42 -66 -1 -18 3 -45 9 -59 6 -15 9 -70 7 -125 l-4 -99 9 85 c12 109 -1
203 -55 413 -10 39 12 35 30 -5 18 -41 95 -289 95 -305 0 -7 32 -111 70 -232
39 -120 70 -226 70 -235 0 -9 7 -16 15 -16 11 0 14 -7 10 -22 -14 -65 -24
-199 -18 -260 6 -65 5 -69 -16 -75 -11 -3 -21 -9 -21 -14 0 -23 -20 -5 -21 19
-1 25 -1 25 -11 -8 -20 -65 -19 -14 2 90 11 57 18 105 16 108 -6 6 -34 -86
-51 -167 -17 -80 -28 -101 -54 -101 -17 0 -71 93 -71 122 0 26 -62 107 -83
107 -23 1 -92 45 -136 87 -29 27 -38 31 -59 23 -14 -5 -33 -7 -43 -4 -20 7
-26 -9 -9 -20 6 -4 8 -10 5 -14 -2 -5 13 -15 35 -24 27 -10 41 -23 46 -41 3
-14 10 -26 16 -26 5 0 6 -5 3 -10 -3 -6 3 -22 15 -37 21 -27 12 -45 -13 -25
-20 15 -47 22 -47 12 0 -6 6 -10 14 -10 8 0 23 -11 33 -24 10 -13 37 -33 58
-44 50 -26 35 -29 -19 -3 -125 58 -156 71 -166 71 -16 0 -100 50 -100 60 0 4
-8 7 -17 6 -10 0 -17 5 -15 12 1 7 -5 15 -13 18 -8 4 -15 12 -15 20 0 7 -6 11
-14 8 -8 -3 -19 3 -26 16 -6 11 -16 18 -22 14 -5 -4 -14 0 -19 7 -7 11 -9 9
-9 -7 0 -11 5 -25 12 -32 7 -7 8 -12 2 -12 -13 0 -52 29 -40 30 5 0 3 7 -4 15
-7 8 -16 12 -21 9 -5 -2 -21 1 -36 9 -15 7 -35 12 -44 10 -9 -2 -20 7 -27 22
-18 39 -15 45 26 46 36 1 37 1 10 11 -30 10 -35 27 -15 47 10 10 8 16 -9 29
-21 18 -28 52 -12 63 4 3 -5 32 -22 64 -16 32 -30 63 -30 69 0 6 -11 33 -25
60 -30 59 -31 69 -5 37 11 -13 20 -18 20 -12 0 26 -43 136 -68 174 -23 34 -27
50 -25 101 2 61 -19 122 -37 111 -6 -3 -18 11 -27 32 -10 21 -26 47 -35 57
-10 11 -18 23 -18 28 0 17 -54 68 -67 64 -8 -4 -18 5 -23 20 -15 39 -13 44 15
34 30 -12 38 0 25 36 -15 38 -8 38 29 -1 18 -19 39 -35 47 -35 8 0 14 -6 14
-13 0 -7 8 -22 18 -33 15 -16 16 -22 6 -32 -11 -10 -10 -18 1 -47 8 -19 15
-44 15 -56 0 -27 24 -20 28 9 2 12 7 22 11 22 15 0 43 -110 37 -138 -20 -83
-23 -108 -15 -129 13 -36 29 -27 29 17 0 22 3 40 8 40 4 0 24 -35 44 -78 41
-85 76 -127 137 -168 23 -15 41 -33 41 -40 0 -7 22 -20 50 -28 27 -8 95 -41
151 -72 l101 -58 -6 -43 c-6 -49 1 -53 34 -18 13 14 31 25 39 25 9 0 47 -21
84 -46 38 -25 73 -44 79 -42 6 2 -6 15 -26 28 -20 14 -36 29 -36 34 0 6 5 5
12 -2 25 -25 27 -10 8 41 -11 28 -20 62 -20 75 0 28 -18 61 -49 86 -13 10 -27
24 -32 30 -83 102 -90 112 -87 141 3 27 -2 32 -52 56 -50 24 -67 39 -127 117
-17 21 -77 63 -98 68 -5 1 -22 5 -37 9 -21 5 -27 3 -33 -14 -3 -12 -18 -35
-32 -51 -13 -17 -19 -30 -13 -30 17 0 80 39 80 50 0 4 21 4 46 -1 51 -10 80
-36 76 -70 -1 -3 -2 -24 -3 -47 -3 -40 -3 -40 -38 -34 -29 4 -33 3 -28 -11 4
-10 2 -17 -3 -17 -13 0 -13 57 0 65 6 3 10 1 10 -4 0 -6 7 -11 16 -11 26 0 14
60 -18 83 -26 20 -28 20 -75 2 -26 -10 -51 -23 -55 -29 -4 -6 -8 -45 -8 -86 0
-52 -3 -70 -10 -60 -5 8 -10 34 -10 57 0 23 -4 43 -9 45 -5 2 -11 10 -13 18
-2 8 -7 18 -13 22 -8 6 -13 65 -15 186 0 7 -4 10 -10 7 -5 -3 -10 -48 -11 -98
-1 -118 -17 -78 -18 47 l-1 88 51 59 c63 72 134 122 165 116 13 -2 21 0 18 4
-9 16 14 10 52 -13 l37 -21 -12 21 c-6 12 -17 22 -24 22 -8 0 -8 3 2 9 11 7 9
10 -8 16 -12 3 -33 17 -46 31 -13 13 -35 24 -48 24 -34 0 -38 9 -15 32 19 19
19 19 69 -6 27 -15 49 -23 49 -19 1 5 8 -5 16 -20 9 -16 18 -27 21 -24 8 9
-24 61 -62 99 -49 49 -101 74 -120 58 -25 -21 -27 -71 -5 -134 11 -33 20 -62
20 -66 0 -4 -15 -13 -32 -20 -18 -7 -43 -22 -55 -33 -22 -20 -43 -16 -43 9 0
18 -14 18 -30 -1 -7 -8 -18 -15 -25 -15 -7 0 -24 -9 -38 -20 l-26 -21 -16 52
c-23 78 -20 101 19 138 42 40 37 61 -13 61 -33 1 -34 2 -18 15 11 7 25 11 33
8 14 -5 37 14 42 36 4 17 -46 6 -70 -16 -15 -13 -16 -13 -11 6 5 18 1 20 -41
18 -33 -1 -46 -6 -47 -17 0 -10 -2 -11 -6 -2 -10 25 -43 12 -60 -22 -18 -39
-11 -75 11 -57 7 6 16 8 19 4 4 -3 7 -1 7 6 0 7 5 9 12 5 7 -4 8 -3 4 4 -5 9
-13 9 -27 2 -24 -13 -25 2 -1 23 25 23 39 21 67 -8 30 -29 32 -67 5 -119 -15
-30 -21 -35 -26 -23 -3 9 1 26 10 39 18 25 22 83 6 73 -5 -3 -10 -21 -10 -40
0 -37 -15 -54 -33 -36 -6 6 -26 11 -43 11 -43 0 -58 17 -73 84 -11 51 -14 55
-32 46 -13 -8 -19 -7 -19 1 0 6 9 13 19 16 16 4 18 10 10 36 -5 16 -18 41 -31
54 -23 24 -45 32 -31 11 12 -19 33 -82 28 -86 -3 -3 -85 165 -85 174 0 2 14 4
30 4 l31 0 -17 31 c-9 18 -26 42 -38 54 -31 31 -53 85 -38 94 6 4 78 26 159
50 216 63 353 113 364 134 12 21 -3 22 -83 3 -78 -18 -74 -3 4 19 l63 17 -40
22 c-22 12 -41 29 -42 39 0 11 28 49 64 88 36 38 63 72 60 76 -4 3 -33 -4 -64
-17 -32 -12 -77 -25 -100 -27 l-42 -5 -6 39 c-11 70 -20 88 -54 105 l-34 17
27 11 c15 5 39 10 53 10 19 0 24 4 19 16 -3 9 -6 19 -6 24 0 4 -13 10 -29 13
-31 7 -280 -65 -291 -84 -4 -5 -31 -13 -61 -18 -30 -5 -67 -14 -83 -20 -16 -7
-30 -10 -31 -9 -3 3 10 89 24 158 23 113 63 298 71 325 21 75 21 85 1 85 -14
0 -26 -14 -40 -46z m225 -529 c16 -8 38 -15 49 -15 22 0 85 -51 85 -68 0 -6
-30 2 -67 19 -38 17 -69 30 -70 30 -2 -1 -12 -1 -24 -1 -15 0 -19 5 -15 15 3
9 0 15 -10 15 -8 0 -12 5 -9 10 9 14 28 12 61 -5z m-79 -11 c-3 -3 -12 -4 -19
-1 -8 3 -5 6 6 6 11 1 17 -2 13 -5z m-87 -26 c-14 -6 -36 -14 -49 -19 -28 -12
-23 -19 15 -23 15 -2 28 -10 30 -18 1 -11 -9 -13 -56 -7 -103 12 -102 30 2 59
70 21 96 24 58 8z m-460 -138 c0 -5 -10 -14 -21 -21 -18 -9 -20 -17 -15 -52
l6 -42 -19 35 c-30 55 -30 73 -1 81 37 10 50 10 50 -1z m185 -60 c8 -13 -5
-13 -25 0 -13 8 -13 10 2 10 9 0 20 -4 23 -10z m734 -34 c-38 -31 -117 -76
-134 -76 -12 0 -42 -7 -65 -15 -46 -16 -114 -21 -75 -6 11 5 52 18 91 30 40
12 84 31 100 43 15 12 34 23 42 24 8 2 20 8 26 14 8 8 12 8 14 0 2 -6 2 -13 1
-14z m-561 -21 c44 -14 141 -74 142 -87 0 -4 -20 -13 -45 -19 -25 -6 -45 -15
-45 -20 0 -5 -7 -9 -16 -9 -8 0 -13 -4 -9 -9 7 -12 -60 -45 -77 -38 -7 3 2 10
20 17 18 7 31 15 28 17 -10 10 54 65 69 59 8 -3 15 -2 15 3 0 16 -39 43 -96
66 -32 13 -60 29 -63 36 -2 8 2 10 15 5 11 -4 38 -14 62 -21z m-263 5 c3 -5 2
-10 -4 -10 -5 0 -13 5 -16 10 -3 6 -2 10 4 10 5 0 13 -4 16 -10z m-105 -20 c0
-5 -2 -10 -4 -10 -3 0 -8 5 -11 10 -3 6 -1 10 4 10 6 0 11 -4 11 -10z m147 4
c-3 -3 -12 -4 -19 -1 -8 3 -5 6 6 6 11 1 17 -2 13 -5z m183 -67 c0 -8 10 -19
23 -25 21 -10 20 -11 -10 -11 -35 -1 -46 9 -37 33 7 19 24 21 24 3z m-156 -43
c19 -18 19 -16 6 -48 -5 -14 -15 -26 -22 -25 -10 0 -10 2 0 6 17 7 15 34 -4
61 -17 25 -3 30 20 6z m1425 -69 c0 -5 -4 -3 -9 5 -5 8 -9 22 -9 30 0 16 17
-16 18 -35z m-1298 -1 c17 -8 29 -18 26 -20 -3 -3 -19 2 -36 10 -34 18 -41 19
-41 8 0 -4 12 -15 28 -24 18 -12 22 -18 10 -18 -9 0 -18 -5 -20 -12 -7 -20
-38 0 -38 25 0 23 16 47 32 47 5 0 23 -7 39 -16z m-221 -19 c0 -8 -2 -15 -4
-15 -2 0 -6 7 -10 15 -3 8 -1 15 4 15 6 0 10 -7 10 -15z m-1309 -68 c-10 -9
-11 -8 -5 6 3 10 9 15 12 12 3 -3 0 -11 -7 -18z m1339 -52 c0 -7 7 -18 15 -25
19 -16 20 -31 1 -24 -16 6 -46 74 -46 102 0 11 5 7 15 -12 8 -15 15 -34 15
-41z m300 16 c10 -22 23 -41 28 -43 5 -1 12 -26 16 -54 5 -41 3 -53 -9 -58 -8
-3 -15 0 -15 6 0 7 -4 7 -14 -1 -14 -12 -46 -5 -46 11 0 5 -6 8 -12 6 -15 -2
-75 27 -100 49 -10 9 -24 13 -33 9 -9 -3 -13 -2 -10 4 8 13 42 13 50 0 3 -5
15 -10 26 -10 11 0 29 -9 41 -20 12 -11 28 -20 36 -20 8 0 21 -8 29 -17 11
-16 12 -14 1 12 -17 41 -47 87 -72 106 -20 17 -19 17 15 38 19 11 37 21 41 21
4 0 17 -18 28 -39z m-1220 -57 c0 -11 -9 -1 -20 21 -11 22 -20 41 -20 43 0 3
9 -7 20 -21 11 -14 20 -33 20 -43z m-170 22 c0 -2 -12 -12 -27 -21 l-28 -18
19 21 c17 20 36 29 36 18z m1150 -26 c0 -5 -5 -10 -11 -10 -5 0 -7 5 -4 10 3
6 8 10 11 10 2 0 4 -4 4 -10z m355 -30 c3 -5 1 -10 -4 -10 -6 0 -11 5 -11 10
0 6 2 10 4 10 3 0 8 -4 11 -10z m-333 -29 c115 -51 168 -71 230 -90 36 -11 75
-28 85 -38 20 -20 155 -324 184 -413 30 -95 43 -125 67 -154 12 -16 22 -33 22
-39 0 -10 28 -72 77 -171 23 -49 20 -66 -12 -66 -5 0 -3 4 5 10 17 10 18 10
-62 30 -50 13 -68 35 -20 24 22 -4 24 -3 12 6 -12 9 -7 11 23 6 33 -4 36 -3
28 13 -6 10 -17 23 -25 30 -9 7 -18 29 -22 48 -4 20 -16 41 -30 50 -13 8 -29
31 -36 50 -9 25 -20 36 -40 40 -25 5 -28 10 -28 43 0 33 -4 39 -32 50 -71 26
-79 30 -85 47 -14 41 -101 113 -150 125 -17 5 -23 2 -23 -11 0 -9 5 -22 12
-29 6 -6 9 -14 6 -18 -8 -7 -58 77 -58 97 0 8 -5 20 -12 27 -8 8 -8 15 1 26
10 12 9 17 -6 25 -10 6 -26 17 -35 24 -21 17 -73 150 -56 145 7 -3 16 -20 20
-39 15 -60 29 -87 49 -92 10 -3 19 -2 19 2 0 4 11 13 25 19 22 10 25 9 25 -8
0 -14 -7 -20 -22 -20 -22 0 -21 -1 7 -25 17 -13 44 -29 60 -36 61 -25 99 -81
39 -59 -28 11 -50 13 -41 4 3 -3 8 -5 12 -4 4 1 14 -7 23 -18 9 -10 29 -27 45
-36 15 -10 27 -24 27 -31 0 -7 20 -25 44 -39 39 -23 55 -25 96 -16 3 0 -4 8
-15 18 -24 21 -118 210 -110 222 3 5 -4 33 -15 62 -21 56 -57 88 -99 88 -26 0
-140 50 -182 81 -37 26 -42 22 -28 -20 6 -18 9 -35 5 -38 -3 -3 -11 15 -18 41
-7 25 -15 46 -19 46 -4 0 -9 7 -13 15 -7 19 -5 19 46 -4z m-1236 -37 c13 -14
24 -26 24 -27 0 -2 -11 -4 -25 -5 -33 -2 -68 27 -53 45 15 19 28 16 54 -13z
m48 10 c4 -9 4 -19 2 -21 -8 -8 -26 8 -26 23 0 19 16 18 24 -2z m-289 -14 c3
-5 2 -10 -2 -10 -5 0 -16 -12 -25 -27 l-17 -28 -1 26 c0 36 30 63 45 39z
m2970 -22 c4 -18 34 -111 66 -207 33 -96 59 -179 59 -184 0 -29 -48 40 -91
131 -27 56 -59 112 -70 123 -20 20 -20 22 -4 95 10 41 21 74 25 74 5 0 12 -15
15 -32z m-2555 -13 c0 -2 -10 -9 -22 -15 -22 -11 -22 -10 -4 4 21 17 26 19 26
11z m-127 -34 c-4 -14 1 -20 19 -23 l23 -3 -23 -13 c-31 -17 -52 -9 -52 21 0
26 7 37 26 37 7 0 10 -8 7 -19z m50 12 c-7 -2 -19 -2 -25 0 -7 3 -2 5 12 5 14
0 19 -2 13 -5z m167 -18 c27 -29 22 -42 -10 -25 -12 6 -19 14 -16 17 3 4 1 12
-5 20 -20 24 7 14 31 -12z m-91 -27 c-5 -10 -12 -18 -14 -18 -3 0 -5 8 -5 18
0 10 7 19 14 19 11 0 13 -5 5 -19z m2670 -63 c13 -33 30 -73 37 -90 22 -54 66
-196 62 -201 -3 -2 -17 5 -32 17 -19 15 -25 27 -20 41 7 24 -15 80 -29 71 -6
-3 -7 -1 -3 6 7 11 -24 115 -47 155 -6 12 -12 35 -13 53 -2 44 16 24 45 -52z
m-1139 13 c0 -7 3 -24 6 -38 4 -18 3 -21 -4 -10 -17 27 -24 60 -13 60 6 0 11
-6 11 -12z m998 -57 c12 -21 22 -41 22 -45 0 -3 -18 4 -40 15 -37 19 -51 45
-33 62 14 15 30 5 51 -32z m-2038 -21 c-19 -13 -30 -13 -30 0 0 6 10 10 23 10
18 0 19 -2 7 -10z m70 -60 c0 -6 -15 -18 -34 -27 -22 -10 -40 -29 -52 -54 -15
-35 -34 -52 -34 -30 0 37 26 74 69 96 55 29 51 28 51 15z m60 -10 c13 -9 13
-10 0 -9 -8 0 -24 4 -35 9 l-20 9 20 0 c11 0 27 -4 35 -9z m-1505 -22 c-17
-62 -28 -78 -51 -78 -13 0 -24 4 -24 10 0 5 7 7 15 4 8 -4 15 -2 15 4 0 5 -7
12 -15 16 -18 7 -20 37 -3 54 7 7 25 12 41 12 25 0 28 -3 22 -22z m-98 -40
c-3 -8 -6 -5 -6 6 -1 11 2 17 5 13 3 -3 4 -12 1 -19z m1080 -70 c-3 -8 -6 -5
-6 6 -1 11 2 17 5 13 3 -3 4 -12 1 -19z m291 -16 c-9 -23 -8 -36 5 -62 23 -46
14 -49 -13 -5 -19 31 -21 39 -10 65 16 38 32 39 18 2z m869 -4 c-3 -8 -6 -5
-6 6 -1 11 2 17 5 13 3 -3 4 -12 1 -19z m592 7 c5 2 16 -2 26 -9 21 -15 12
-38 -12 -29 -10 4 -14 2 -9 -5 3 -6 2 -13 -4 -17 -5 -3 -10 -1 -10 4 0 6 -7
11 -16 11 -11 0 -15 6 -11 19 3 14 1 18 -9 14 -8 -3 -14 0 -14 5 0 12 43 21
48 9 2 -4 7 -5 11 -2z m-1226 -38 c-59 -62 -49 -141 20 -150 21 -3 17 -4 -13
-3 -39 1 -47 5 -58 29 -8 17 -11 42 -8 60 6 33 72 114 83 103 4 -3 -7 -21 -24
-39z m337 33 c0 -5 -2 -10 -4 -10 -3 0 -8 5 -11 10 -3 6 -1 10 4 10 6 0 11 -4
11 -10z m-896 -100 c-5 -5 -10 3 -11 18 -1 22 0 24 9 8 6 -10 6 -22 2 -26z
m244 2 c-17 -44 -3 -81 37 -98 44 -18 45 -26 3 -13 -18 5 -39 17 -45 26 -14
18 -18 95 -6 106 15 16 21 5 11 -21z m-844 -71 c14 -22 34 -42 46 -46 20 -6
57 -66 71 -112 11 -37 -21 -13 -90 67 -45 52 -61 79 -61 101 0 16 2 29 5 29 3
0 16 -18 29 -39z m1056 -6 c-10 -12 -10 -22 -1 -43 10 -25 10 -26 -4 -8 -18
24 -19 48 -3 64 17 17 23 6 8 -13z m-1539 -12 c-12 -20 -14 -14 -5 12 4 9 9
14 11 11 3 -2 0 -13 -6 -23z m3868 -85 c7 -35 25 -101 41 -148 15 -47 28 -101
28 -120 1 -31 0 -32 -7 -10 -4 14 -16 40 -25 59 -23 43 -84 229 -86 261 -1 14
-2 34 -1 45 3 40 37 -20 50 -87z m-3771 83 c8 -5 12 -17 10 -27 -4 -24 -53
-27 -71 -5 -11 14 -10 15 7 1 18 -14 19 -13 12 13 -5 22 -3 27 11 27 10 0 24
-4 31 -9z m1015 -27 c-6 -16 -74 -66 -81 -59 -2 2 13 22 34 44 38 38 59 46 47
15z m1345 -19 c-6 -14 -15 -25 -20 -25 -11 0 -10 7 2 31 16 28 32 23 18 -6z
m-2708 -5 c0 -5 -2 -10 -4 -10 -3 0 -8 5 -11 10 -3 6 -1 10 4 10 6 0 11 -4 11
-10z m1140 -10 c10 -7 11 -10 2 -10 -7 0 -32 -18 -56 -40 -24 -22 -53 -40 -64
-40 -11 0 -24 -4 -27 -10 -3 -5 -15 -10 -26 -10 -18 0 -19 1 -4 24 11 16 34
29 65 37 34 9 52 19 59 36 11 25 27 29 51 13z m2259 -36 c-29 -16 -53 -18 -44
-4 4 6 10 8 15 5 4 -3 10 2 14 10 3 9 12 12 22 8 14 -5 13 -8 -7 -19z m-2171
-4 c-20 -32 -101 -80 -144 -85 l-39 -5 60 36 c60 36 127 74 132 74 2 0 -2 -9
-9 -20z m-1368 1 c0 -5 9 -11 20 -14 11 -3 20 -11 20 -17 0 -8 -9 -6 -27 5
-19 13 -28 14 -31 6 -5 -16 -31 -41 -43 -41 -19 0 -8 27 16 40 14 7 25 17 25
22 0 4 5 8 10 8 6 0 10 -4 10 -9z m4310 -6 c0 -8 -2 -15 -4 -15 -2 0 -6 7 -10
15 -3 8 -1 15 4 15 6 0 10 -7 10 -15z m-802 -35 c-7 -10 -14 -18 -15 -16 -6 6
9 36 18 36 5 0 4 -9 -3 -20z m-3208 -40 l25 -8 -25 0 c-14 0 -36 4 -50 8 l-25
8 25 0 c14 0 36 -4 50 -8z m3330 -20 c-6 -11 -8 -31 -4 -45 5 -22 3 -25 -20
-25 -21 0 -28 -6 -33 -30 -3 -17 -10 -33 -16 -37 -7 -4 -8 5 -4 27 8 38 24 60
43 60 20 0 17 39 -3 48 -14 5 -12 8 12 13 17 4 31 7 33 8 1 0 -2 -8 -8 -19z
m-780 -28 c0 -7 -4 -10 -10 -7 -5 3 -10 16 -10 28 0 18 2 19 10 7 5 -8 10 -21
10 -28z m-1680 18 c0 -5 -5 -10 -11 -10 -5 0 -7 5 -4 10 3 6 8 10 11 10 2 0 4
-4 4 -10z m2532 -7 c10 -9 18 -21 18 -28 0 -6 13 -29 30 -52 16 -22 27 -43 24
-46 -3 -3 4 -3 16 0 20 5 21 3 15 -18 -10 -33 -33 -69 -45 -69 -5 0 -15 9 -22
20 -7 11 -20 20 -28 20 -13 0 -13 1 0 10 12 8 10 10 -10 10 -21 0 -28 8 -42
53 -19 56 -23 99 -11 110 11 12 36 8 55 -10z m669 -91 c12 -31 43 -147 71
-257 39 -151 51 -218 51 -275 0 -88 -7 -130 -25 -141 -18 -11 -20 9 -10 106
10 112 -3 223 -42 345 -19 58 -44 143 -55 190 -12 47 -24 94 -27 105 -9 38 16
-11 37 -73z m-4434 1 c37 7 48 -8 24 -32 -15 -15 -29 -20 -42 -16 -23 7 -49
61 -49 97 0 19 4 17 23 -15 17 -30 27 -37 44 -34z m1872 15 c-10 -29 -19 -63
-19 -75 0 -13 -4 -23 -9 -23 -13 0 -24 37 -15 51 5 8 3 9 -7 4 -36 -22 -79
-61 -79 -72 0 -7 -4 -13 -10 -13 -5 0 -10 9 -10 20 0 26 37 100 50 100 5 0 31
14 57 30 26 17 50 30 54 30 4 0 -1 -24 -12 -52z m-1524 32 c-10 -16 -57 -37
-100 -43 -34 -6 -36 -5 -15 4 14 6 41 19 60 29 40 20 64 25 55 10z m945 -19
c0 -5 -7 -14 -15 -21 -22 -18 -19 -33 4 -21 14 8 22 7 31 -4 14 -17 15 -17
-22 -33 -16 -6 -28 -18 -28 -27 0 -17 -16 -21 -22 -4 -2 5 -12 11 -22 13 -10
1 -26 13 -36 26 -14 19 -23 22 -53 16 -19 -4 -47 -16 -61 -27 -25 -20 -28 -20
-45 -5 -10 9 -25 16 -34 16 -10 0 -17 8 -17 18 0 10 -5 23 -12 30 -9 9 -8 12
5 12 10 0 20 -6 23 -14 3 -8 12 -17 20 -20 8 -3 13 -2 10 3 -9 14 55 33 69 21
8 -7 26 -5 55 5 23 8 56 15 73 15 l31 0 -31 -23 c-25 -18 -29 -26 -22 -40 6
-9 15 -17 20 -17 6 0 7 5 4 10 -4 6 -1 9 6 8 6 -2 21 14 32 35 19 34 37 48 37
28z m-396 -32 c27 -21 27 -39 0 -39 -8 0 -13 4 -9 10 3 5 -3 18 -15 30 -26 26
-10 26 24 -1z m2177 -17 c9 -7 20 -12 25 -10 5 1 18 -2 29 -8 28 -15 95 -10
105 7 7 10 14 2 29 -31 11 -24 19 -46 17 -47 -10 -11 -216 66 -213 80 1 6 -7
13 -17 15 -14 3 -17 0 -13 -12 7 -17 -9 -21 -31 -7 -11 7 -11 9 2 14 10 4 13
13 9 23 -5 14 -3 14 18 2 13 -7 31 -19 40 -26z m159 18 c0 -5 -2 -10 -4 -10
-3 0 -8 5 -11 10 -3 6 -1 10 4 10 6 0 11 -4 11 -10z m-2430 -9 c0 -5 3 -18 7
-28 6 -17 5 -17 -15 1 -26 22 -28 36 -7 36 8 0 15 -4 15 -9z m1777 -100 c6
-36 14 -74 18 -83 4 -11 3 -18 -4 -18 -6 0 -11 7 -11 14 0 8 -11 36 -25 62
-14 26 -25 62 -25 81 0 30 2 32 18 22 13 -8 22 -33 29 -78z m-1159 40 c11 -24
29 -45 52 -57 25 -14 36 -27 38 -46 2 -16 -1 -28 -7 -28 -6 0 -11 4 -11 9 0
11 -29 23 -40 16 -5 -3 -5 -18 0 -34 6 -23 5 -29 -5 -25 -7 3 -16 1 -20 -5
-12 -20 -44 -12 -49 12 -3 12 -7 33 -10 47 -3 17 -20 34 -45 48 -57 33 -33 73
33 56 23 -5 26 -3 26 20 0 38 19 32 38 -13z m3097 3 c3 -20 4 -39 1 -42 -3 -3
-6 4 -6 16 0 12 -4 22 -8 22 -4 0 -8 9 -9 20 -3 34 14 22 22 -16z m-4430 7 c7
-12 -22 -41 -40 -41 -22 0 -27 17 -9 34 17 18 40 21 49 7z m665 -8 c0 -10 -4
-24 -9 -32 -7 -11 -11 -10 -19 6 -8 14 -8 23 0 31 17 17 28 15 28 -5z m3201
-20 c8 -9 10 -18 4 -20 -10 -3 -55 -32 -86 -54 -12 -9 -24 -6 -58 17 -24 15
-39 30 -33 32 6 2 23 -4 37 -14 22 -14 29 -15 50 -4 14 7 32 24 40 37 18 27
28 29 46 6z m-2943 -27 c0 -19 3 -43 6 -53 4 -13 -3 -28 -24 -48 -29 -28 -30
-28 -45 -9 -8 10 -12 25 -10 32 3 8 5 21 5 31 0 16 49 81 62 81 3 0 6 -15 6
-34z m1692 3 c0 -5 -7 -9 -15 -9 -15 0 -20 12 -9 23 8 8 24 -1 24 -14z m465 6
c17 -2 50 -10 75 -17 43 -13 45 -15 71 -88 14 -41 24 -80 22 -86 -2 -6 3 -14
11 -17 9 -4 16 -15 16 -25 0 -19 -1 -19 -40 0 -33 17 -40 25 -40 49 0 21 4 27
15 23 12 -5 11 3 -5 42 -12 27 -27 54 -33 60 -20 17 -148 54 -199 57 -27 1
-48 6 -48 11 0 5 27 6 63 2 34 -4 76 -9 92 -11z m-2453 -44 c-8 -5 -14 -12
-14 -17 0 -5 -9 -26 -19 -47 -17 -33 -18 -38 -4 -43 9 -4 24 1 35 11 18 17 19
16 26 -9 7 -31 -15 -71 -46 -81 -11 -3 -20 -12 -20 -18 0 -7 -6 -1 -13 12 -6
14 -18 26 -26 29 -8 3 -11 0 -7 -7 4 -6 1 -11 -8 -11 -9 0 -16 -5 -16 -12 0
-6 -3 -8 -6 -5 -4 4 -1 14 7 24 12 15 12 16 -3 10 -26 -9 -22 9 16 80 19 35
30 60 26 58 -5 -3 -11 -1 -15 5 -4 6 -11 7 -17 4 -7 -4 -8 -2 -4 5 4 6 12 9
17 5 18 -11 58 6 64 27 7 20 8 20 24 5 13 -14 13 -18 3 -25z m1148 26 c0 -6
-14 -29 -30 -51 -16 -21 -32 -51 -35 -66 -3 -15 -18 -36 -33 -47 -14 -10 -49
-40 -76 -68 l-51 -50 -3 34 c-8 81 43 166 113 188 17 5 39 23 50 39 20 30 65
45 65 21z m1160 -2 l25 -14 -26 -1 c-15 0 -29 7 -33 15 -7 18 2 18 34 0z
m-445 -109 c19 -36 35 -74 35 -84 0 -9 9 -31 19 -48 18 -30 25 -54 22 -80 0
-5 -21 -25 -46 -44 -25 -19 -45 -42 -45 -52 0 -19 16 -22 100 -19 l46 3 23
-59 c13 -32 55 -122 92 -200 l69 -142 86 -42 c48 -22 106 -49 130 -59 l43 -19
-5 -328 c-3 -180 -7 -361 -10 -401 l-6 -72 -101 -87 c-56 -48 -110 -94 -120
-102 -16 -13 -19 -13 -27 -1 -5 8 -8 25 -5 38 2 12 -1 22 -8 22 -7 0 14 18 46
41 63 45 79 65 20 24 -25 -17 -41 -21 -47 -15 -6 6 -12 44 -14 85 -2 41 -7 75
-11 75 -3 0 -7 40 -8 88 -3 111 -15 140 -60 148 -41 8 -71 -16 -110 -88 -35
-64 -41 -54 -9 14 33 69 47 85 80 94 15 3 25 9 22 11 -3 3 -20 0 -39 -6 -28
-10 -45 -28 -87 -97 -29 -47 -62 -96 -74 -108 -23 -25 -115 -81 -121 -74 -2 2
23 28 57 58 71 64 130 140 147 190 17 51 55 90 87 90 21 0 24 3 15 14 -6 7
-20 82 -31 165 -11 83 -31 198 -46 254 -14 56 -30 118 -33 137 -9 41 -36 86
-57 94 -25 10 -53 -12 -85 -65 -29 -47 -49 -62 -49 -38 0 8 -5 7 -16 -2 -10
-8 -14 -24 -12 -45 2 -18 1 -31 -3 -28 -4 2 -10 0 -14 -6 -3 -5 -15 -10 -25
-10 -24 0 -37 -25 -90 -175 l-42 -120 -102 -105 c-59 -61 -118 -134 -141 -173
-44 -76 -60 -76 -22 0 30 58 60 96 162 205 73 78 105 128 105 163 0 21 -12 19
-40 -7 -13 -12 -35 -23 -50 -24 -14 -2 -28 -3 -32 -3 -3 -1 -20 -13 -37 -27
-38 -32 -42 -11 -6 28 29 31 32 45 10 45 -8 0 -15 -3 -15 -7 0 -4 -11 -12 -25
-18 -24 -11 -25 -10 -15 7 17 33 -6 33 -58 1 -57 -35 -64 -36 -55 -12 5 14 3
15 -8 5 -7 -7 -17 -13 -22 -13 -5 0 -5 5 1 13 5 6 12 26 15 42 14 75 39 156
67 217 16 37 32 86 36 110 4 24 11 48 15 54 5 6 10 20 12 31 4 28 35 73 48 70
7 -1 13 3 15 8 3 7 -11 9 -35 7 -41 -4 -64 13 -40 29 8 5 10 9 4 9 -5 0 -4 5
3 12 20 20 14 43 -18 61 -16 10 -30 23 -30 29 0 6 8 4 18 -5 29 -26 86 -31
117 -11 26 17 27 20 20 80 -5 52 -3 69 14 102 35 69 109 135 176 158 33 11 59
26 58 32 -2 7 9 12 27 12 20 0 33 6 37 18 4 9 14 22 22 28 19 14 36 -6 86
-100z m1365 54 c0 -28 -4 -40 -14 -40 -8 0 -17 6 -20 13 -3 6 -4 3 -1 -9 3
-12 -1 -27 -10 -34 -9 -8 -15 -8 -15 -2 0 6 5 14 10 17 8 5 7 11 0 20 -8 10
-8 19 -1 34 9 16 36 39 49 41 1 0 2 -18 2 -40z m-2766 14 c11 -30 6 -135 -8
-163 -8 -15 -26 -32 -40 -39 -22 -10 -26 -18 -27 -54 -1 -52 -9 -73 -29 -73
-9 0 -14 -7 -12 -17 2 -11 -3 -18 -13 -18 -9 0 -14 -4 -10 -9 8 -14 86 22 80
37 -3 8 3 7 19 -3 16 -11 22 -22 19 -35 -3 -12 0 -20 7 -20 9 0 7 -7 -5 -20
-10 -11 -23 -20 -29 -20 -6 0 -4 5 4 10 8 5 11 10 7 10 -4 0 -19 -7 -32 -16
-14 -9 -25 -12 -25 -8 0 5 -4 3 -9 -5 -5 -7 -21 -13 -36 -13 -14 0 -29 -7 -32
-15 -3 -8 -12 -12 -19 -9 -9 3 -16 -4 -20 -22 -10 -47 -12 -48 -13 -6 -1 38
21 77 31 57 3 -4 3 -2 2 5 -2 6 1 12 6 12 6 0 10 5 10 12 0 6 -12 1 -26 -13
l-26 -24 7 40 c4 22 12 48 16 57 5 9 9 25 9 35 0 15 -3 14 -20 -7 -20 -26 -20
-26 -39 5 -10 17 -11 15 -6 -15 14 -75 17 -181 5 -196 -16 -19 -31 -18 -24 1
5 11 2 13 -12 8 -13 -5 -15 -3 -9 7 5 8 4 11 -2 7 -6 -4 -13 0 -16 7 -6 14
-47 42 -47 31 0 -3 16 -23 36 -45 51 -56 28 -50 -28 8 -47 47 -69 87 -61 109
6 16 67 -8 91 -36 9 -11 28 -21 42 -23 30 -4 37 24 20 77 -12 36 -27 44 -48
23 -9 -9 -15 -8 -24 4 -7 9 -18 17 -25 19 -8 3 -5 19 12 51 13 27 20 50 15 53
-6 3 -23 25 -39 49 -26 38 -28 46 -18 67 7 13 18 43 25 67 10 31 18 42 33 42
11 0 22 -7 25 -15 4 -8 12 -15 19 -15 7 0 26 -16 42 -36 l29 -36 49 45 c84 75
156 105 169 71z m2836 6 c0 -5 -4 -10 -10 -10 -5 0 -10 5 -10 10 0 6 5 10 10
10 6 0 10 -4 10 -10z m-31 -7 c0 -5 -4 -17 -9 -28 -8 -18 -9 -17 -9 8 -1 15 4
27 9 27 6 0 10 -3 9 -7z m-2659 -113 c-24 -45 -40 6 -18 56 l12 27 8 -32 c5
-19 4 -39 -2 -51z m2110 46 c0 -3 -4 -8 -10 -11 -5 -3 -10 -1 -10 4 0 6 5 11
10 11 6 0 10 -2 10 -4z m-710 -21 c8 -9 8 -15 2 -15 -18 0 -42 12 -42 21 0 14
26 10 40 -6z m-84 -42 c-7 -7 -26 7 -26 19 0 6 6 6 15 -2 9 -7 13 -15 11 -17z
m-1261 -6 c16 -5 15 -5 -4 -4 -14 1 -26 9 -28 17 -3 10 -2 11 4 4 4 -7 17 -14
28 -17z m100 -42 c10 -23 14 -46 10 -65 -8 -35 -20 -39 -28 -10 -9 37 -35 22
-52 -30 -9 -27 -21 -53 -27 -57 -8 -4 -9 0 -4 12 6 16 4 16 -11 4 -10 -7 -23
-19 -30 -27 -10 -12 -16 -12 -39 0 -28 13 -49 46 -23 36 52 -19 56 -19 67 9
21 52 25 102 11 120 -13 15 -12 15 7 3 18 -11 24 -9 49 14 37 35 49 33 70 -9z
m291 8 c-10 -10 -19 5 -10 18 6 11 8 11 12 0 2 -7 1 -15 -2 -18z m933 -28 c0
-5 -6 1 -14 15 -8 14 -14 30 -14 35 0 6 6 -1 14 -15 8 -14 14 -29 14 -35z
m-3144 35 c3 -5 -1 -10 -10 -10 -9 0 -13 5 -10 10 3 6 8 10 10 10 2 0 7 -4 10
-10z m1082 -42 c-3 -8 -6 -5 -6 6 -1 11 2 17 5 13 3 -3 4 -12 1 -19z m1117
-20 c-11 -18 -24 -40 -30 -48 -6 -8 -21 -45 -34 -82 -12 -38 -26 -68 -31 -68
-4 0 -6 -6 -3 -14 3 -7 -2 -16 -10 -19 -9 -4 -16 -11 -16 -18 0 -6 7 -9 15 -5
18 7 20 -15 3 -32 -7 -7 -13 -16 -13 -20 -1 -20 -39 -61 -63 -68 -60 -17 -63
-15 -42 25 11 20 25 65 32 100 12 62 14 64 31 47 16 -17 17 -16 17 8 0 17 14
39 39 64 21 21 46 53 55 72 15 32 27 54 50 88 17 27 17 2 0 -30z m1659 -78
c21 -52 46 -100 55 -107 11 -8 12 -12 5 -13 -7 0 -13 -6 -13 -13 0 -8 -9 -22
-20 -32 -11 -10 -17 -21 -15 -25 3 -4 -2 -10 -10 -14 -17 -6 -20 5 -6 19 17
18 15 69 -2 96 -9 14 -20 46 -23 70 -3 24 -12 59 -20 78 -17 41 -17 44 -2 39
6 -2 29 -46 51 -98z m-3558 -3 c21 -37 35 -71 31 -74 -3 -3 -9 3 -12 13 -4 10
-26 47 -50 80 -24 34 -40 64 -37 68 10 10 28 -12 68 -87z m771 48 c1 -14 -2
-23 -6 -20 -5 3 -13 -3 -19 -12 -8 -14 -10 -15 -11 -3 0 13 26 60 33 60 1 0 3
-11 3 -25z m-105 -28 c-6 -14 -7 -42 -4 -61 4 -24 2 -36 -6 -36 -6 0 -11 -6
-11 -13 0 -8 -13 -13 -32 -12 -32 0 -33 1 -33 45 0 37 3 45 18 44 9 -1 17 2
17 7 0 5 9 9 19 9 12 0 21 9 25 26 4 15 9 24 12 22 2 -3 0 -17 -5 -31z m2543
-41 c17 -40 18 -53 9 -89 -10 -37 -10 -40 3 -23 19 26 27 16 59 -69 23 -59 26
-79 20 -131 -7 -70 -35 -106 -80 -106 -14 0 -28 -4 -31 -9 -3 -5 -17 -9 -32
-8 -27 1 -27 1 6 15 64 28 87 75 56 118 -7 11 -14 28 -14 38 0 10 -5 18 -11
18 -5 0 -7 5 -4 10 9 15 -2 12 -19 -6 -15 -14 -16 -14 -16 5 0 11 4 30 9 43
15 39 2 72 -50 127 -27 29 -49 58 -49 66 0 8 17 19 38 25 20 5 44 14 52 20 23
15 33 7 54 -44z m-2412 -16 c4 0 17 5 27 12 15 9 23 9 35 -1 22 -18 20 -41 -3
-41 -23 0 -51 -29 -30 -31 8 -1 20 -1 27 0 17 3 15 -24 -3 -39 -8 -7 -15 -24
-16 -39 0 -14 -3 -20 -6 -13 -2 6 -11 12 -18 12 -7 0 -16 7 -19 16 -3 8 -10
12 -16 9 -5 -3 -10 3 -10 13 0 11 -7 36 -15 55 -8 20 -15 45 -15 56 0 14 5 19
15 15 9 -4 15 0 16 7 0 8 5 4 11 -8 6 -13 15 -23 20 -23z m2908 -5 c20 -24 -1
-38 -28 -19 -23 16 -21 34 2 34 8 0 19 -7 26 -15z m-3560 -30 c0 -5 -5 -3 -10
5 -5 8 -10 20 -10 25 0 6 5 3 10 -5 5 -8 10 -19 10 -25z m1577 -7 c-3 -7 -5
-2 -5 12 0 14 2 19 5 13 2 -7 2 -19 0 -25z m-316 12 c10 -6 19 -15 19 -21 0
-6 -4 -8 -9 -5 -5 3 -12 -9 -15 -28 -4 -18 -16 -42 -29 -52 -22 -19 -22 -19
-5 1 9 11 20 33 24 49 6 23 2 32 -17 47 -21 16 -21 19 -6 19 10 0 27 -5 38
-10z m1645 -105 c1 -52 -1 -56 -13 -39 -8 10 -12 27 -10 36 3 11 0 15 -9 11
-18 -7 -19 28 -2 45 22 22 33 6 34 -53z m-1540 10 c-17 -26 -74 -60 -84 -51
-8 8 -52 -34 -52 -50 0 -7 -9 -12 -20 -11 -29 2 -26 43 6 72 15 14 43 30 63
36 20 5 50 18 66 28 35 21 44 11 21 -24z m1449 26 c3 -5 1 -12 -5 -16 -5 -3
-10 1 -10 9 0 18 6 21 15 7z m750 -12 c15 -15 -10 -11 -41 7 l-29 16 30 -7
c17 -3 34 -11 40 -16z m-2935 -44 c0 -8 -7 -15 -15 -15 -13 0 -14 3 -3 15 16
18 18 18 18 0z m3080 -17 c10 -6 2 -7 -25 -3 -22 4 -44 11 -50 17 -12 12 52 1
75 -14z m-1700 2 c0 -5 -6 -10 -14 -10 -8 0 -18 5 -21 10 -3 6 3 10 14 10 12
0 21 -4 21 -10z m-1353 -20 c11 0 9 -6 -8 -25 -21 -22 -25 -23 -36 -9 -15 20
-5 47 14 40 8 -3 21 -6 30 -6z m26 -37 c2 -5 -2 -26 -8 -47 -14 -48 -30 -32
-21 20 6 32 20 44 29 27z m277 -10 c43 -29 53 -55 20 -50 -11 2 -23 6 -26 10
-4 4 -22 7 -41 7 -38 0 -42 11 -10 33 28 20 28 20 57 0z m2452 -8 c0 -5 -5
-11 -10 -13 -5 -1 -9 4 -9 13 0 9 4 14 9 13 5 -2 10 -8 10 -13z m-422 -42
c-11 -17 -11 -17 -6 0 3 10 6 24 7 30 0 9 2 9 5 0 3 -7 0 -20 -6 -30z m1385
-125 c0 -121 17 -218 37 -218 13 0 -1 -63 -16 -72 -21 -14 -26 1 -51 151 -7
38 -43 87 -87 115 -37 24 -29 32 11 11 31 -16 57 -12 45 6 -3 5 0 16 6 24 10
12 10 15 0 15 -29 0 20 88 50 90 3 0 5 -55 5 -122z m152 90 c-4 -18 -13 -91
-22 -163 -8 -71 -22 -182 -30 -245 -27 -222 -28 -243 -14 -235 9 6 10 3 5 -11
-5 -10 -11 -27 -13 -37 -13 -43 -28 -5 -34 81 -3 50 -11 97 -18 105 -6 8 -33
20 -59 27 -26 7 -51 16 -57 19 -5 3 -16 6 -25 7 -8 1 -60 18 -115 38 -55 21
-119 44 -143 52 -24 8 -64 26 -90 40 -27 15 -48 21 -50 14 -6 -16 -54 -12 -67
7 -12 16 -17 16 -48 5 -25 -9 -47 -10 -77 -3 -47 11 -72 28 -49 34 8 2 30 9
49 15 42 13 128 14 150 2 9 -5 38 -11 64 -15 27 -3 113 -32 192 -65 79 -33
147 -60 150 -60 3 0 42 -16 85 -35 61 -27 85 -33 99 -25 26 14 48 120 70 345
13 130 15 135 36 135 13 0 15 -7 11 -32z m-1082 -63 c163 -66 218 -93 245
-120 28 -28 31 -35 16 -35 -10 0 -34 9 -52 21 -39 24 -84 32 -84 15 0 -7 -14
-13 -31 -14 -18 -1 -38 -6 -46 -11 -24 -13 -106 7 -126 31 -24 29 -9 42 37 30
40 -12 56 0 32 23 -8 8 -18 15 -21 15 -4 0 -20 11 -37 25 -16 14 -41 25 -56
25 -15 0 -39 12 -55 28 l-29 27 4 -33 c3 -18 1 -35 -4 -38 -4 -3 -8 -2 -9 3 0
4 -2 27 -5 51 -2 23 0 42 4 42 4 0 102 -38 217 -85z m-1429 49 c-4 -9 -9 -15
-11 -12 -3 3 -3 13 1 22 4 9 9 15 11 12 3 -3 3 -13 -1 -22z m-824 -62 c-6 -15
-14 -42 -17 -59 -4 -18 -10 -35 -15 -38 -4 -2 2 32 13 78 12 45 23 74 25 64 2
-10 -1 -31 -6 -45z m38 33 c0 -14 -4 -25 -10 -25 -11 0 -14 33 -3 43 11 11 13
8 13 -18z m-415 -27 c-19 -11 -30 -5 -21 11 4 6 14 7 22 4 15 -5 14 -7 -1 -15z
m1792 16 c-3 -3 -1 -18 4 -33 l9 -26 -20 24 c-24 28 -25 41 -3 41 9 0 14 -3
10 -6z m543 -26 c0 -16 -3 -19 -11 -11 -6 6 -8 16 -5 22 11 17 16 13 16 -11z
m-220 2 c0 -5 -2 -10 -4 -10 -3 0 -8 5 -11 10 -3 6 -1 10 4 10 6 0 11 -4 11
-10z m-3530 -30 c0 -5 -12 -10 -26 -10 -14 0 -23 4 -19 10 3 6 15 10 26 10 10
0 19 -4 19 -10z m1540 -5 c0 -8 -4 -15 -10 -15 -5 0 -10 7 -10 15 0 8 5 15 10
15 6 0 10 -7 10 -15z m158 -25 c-3 -37 -18 -28 -18 11 0 18 4 28 10 24 6 -4 9
-19 8 -35z m2162 13 c0 -16 8 -26 56 -76 12 -12 39 -28 60 -36 22 -8 48 -20
59 -27 19 -14 19 -14 -3 -14 -35 0 -104 35 -136 69 -17 17 -35 31 -42 31 -6 0
-17 7 -24 15 -10 12 -9 16 4 21 11 4 15 13 10 26 -4 14 -2 18 5 14 6 -4 11
-14 11 -23z m-2436 5 c-5 -7 -11 -44 -14 -82 -3 -38 -10 -71 -16 -73 -15 -5
-64 89 -64 122 0 24 3 26 28 21 17 -4 35 -1 47 8 25 19 28 20 19 4z m2321 2
c3 -5 2 -10 -4 -10 -5 0 -13 5 -16 10 -3 6 -2 10 4 10 5 0 13 -4 16 -10z
m-3925 -34 c0 -14 -6 -31 -14 -38 -42 -40 -190 -158 -200 -158 -3 0 -6 6 -6
13 0 7 21 26 46 42 25 16 68 54 95 84 27 30 49 49 49 42 0 -7 5 -9 10 -6 6 3
10 15 10 26 0 10 2 19 5 19 3 0 5 -11 5 -24z m3930 -8 c0 -15 -22 -19 -65 -12
-63 9 -56 22 10 20 30 0 55 -4 55 -8z m-2075 -51 c4 -18 9 -41 12 -51 4 -16 1
-18 -18 -13 -18 5 -29 1 -42 -16 -14 -16 -17 -17 -13 -4 7 23 -3 22 -32 -5
-23 -21 -22 -19 7 33 17 31 31 62 31 70 0 8 5 20 12 27 16 16 35 -2 43 -41z
m350 13 c3 -5 15 -10 27 -10 19 0 18 -3 -12 -57 -47 -83 -57 -91 -68 -51 -9
37 1 101 18 106 5 2 8 8 4 13 -3 5 2 9 10 9 8 0 18 -4 21 -10z m-2029 -26 c19
-15 19 -16 -1 -8 -27 10 -54 8 -88 -5 -32 -12 -67 -81 -70 -137 -2 -38 -17
-47 -17 -10 0 43 20 130 33 144 11 10 69 26 113 31 5 1 19 -6 30 -15z m2070
-51 c-11 -11 -17 4 -9 23 7 18 8 18 11 1 2 -10 1 -21 -2 -24z m2124 8 c0 -19
-34 -35 -69 -32 -56 5 -60 14 -11 27 56 15 80 17 80 5z m-270 -41 c41 -17 83
-30 92 -30 10 0 53 -18 97 -40 43 -22 85 -40 92 -40 21 0 49 -32 49 -55 0 -12
-21 -41 -51 -71 -27 -27 -57 -62 -66 -79 -8 -16 -22 -35 -29 -43 -19 -18 -18
-36 1 -28 9 3 15 0 15 -9 0 -8 -5 -14 -12 -13 -7 2 -13 -4 -13 -12 -1 -8 -7
-28 -14 -45 -7 -16 -13 -49 -15 -71 -1 -23 -10 -54 -20 -69 -18 -27 -18 -27 6
-20 14 4 18 3 11 -2 -12 -8 -22 -53 -26 -116 -2 -17 -14 -37 -32 -52 l-30 -25
27 10 c45 15 44 24 7 -240 -20 -144 -20 -155 -10 -182 6 -17 16 -26 24 -22 8
3 17 -2 21 -11 3 -9 10 -13 16 -10 5 3 10 -2 10 -11 0 -16 1 -16 14 1 9 12 12
33 9 55 l-5 35 20 -29 c15 -21 18 -35 12 -52 -8 -19 -5 -23 13 -26 27 -4 32
-44 8 -64 -9 -7 -40 -33 -70 -58 -30 -25 -60 -46 -67 -46 -14 0 -57 -50 -50
-58 9 -8 76 19 76 31 0 11 33 37 105 83 16 10 26 13 22 7 -6 -9 -3 -11 8 -7 9
4 14 13 11 20 -3 9 0 11 11 7 12 -5 14 -3 8 7 -6 10 -3 12 13 8 12 -4 20 -2
17 2 -8 13 8 18 30 10 19 -7 19 -7 0 -23 -45 -37 -185 -143 -202 -153 -10 -7
-16 -14 -12 -18 3 -3 42 19 87 50 46 30 87 52 93 49 5 -4 8 -2 7 4 -2 6 13 21
32 33 l35 22 -19 -22 c-20 -23 -18 -26 8 -16 9 3 16 15 16 26 0 11 4 16 11 13
6 -4 8 -13 5 -21 -3 -8 -1 -14 3 -14 5 0 11 7 15 15 3 9 12 12 23 8 14 -5 13
-2 -5 17 -24 26 -22 41 3 20 9 -7 18 -10 22 -6 3 3 2 6 -4 6 -6 0 -9 9 -6 21
3 11 11 18 17 16 6 -2 19 5 29 15 9 10 13 18 8 18 -15 0 -23 37 -16 70 4 17
20 39 38 52 22 15 28 17 18 5 -14 -18 -12 -20 13 -11 8 3 12 12 9 20 -3 8 1
14 11 14 9 0 16 7 16 15 0 8 5 15 10 15 11 0 14 -53 3 -64 -4 -3 -8 -12 -9
-19 -2 -7 -11 -54 -20 -106 -14 -74 -22 -95 -36 -99 -11 -2 -28 -22 -39 -44
l-20 -39 41 21 c38 19 40 19 32 3 -5 -10 -7 -24 -4 -32 2 -8 0 -11 -6 -7 -5 3
-12 -1 -15 -9 -4 -10 -1 -12 11 -8 14 5 15 3 5 -7 -9 -10 -10 -17 -2 -27 9
-10 8 -13 -2 -13 -11 0 -11 -2 1 -10 10 -6 11 -10 3 -10 -7 0 -13 -5 -13 -11
0 -5 4 -8 8 -5 4 2 3 -31 -2 -75 -5 -44 -6 -82 -3 -85 3 -4 21 -10 39 -15 l33
-8 -30 1 c-45 0 -53 -3 -25 -12 25 -8 25 -8 -5 -10 -26 -1 -27 -3 -10 -10 19
-8 19 -9 -2 -9 -12 -1 -25 3 -28 9 -3 5 -29 10 -57 10 -41 0 -49 -3 -44 -15 5
-13 0 -15 -28 -10 -20 4 -36 2 -40 -4 -4 -6 0 -11 10 -11 9 0 25 -10 36 -22
11 -13 35 -40 55 -61 30 -33 33 -40 21 -54 -11 -15 -10 -16 10 -11 14 4 20 2
15 -5 -4 -7 0 -8 11 -4 11 4 15 3 11 -4 -4 -6 -13 -8 -21 -5 -8 3 -14 1 -14
-4 0 -6 5 -10 10 -10 6 0 3 -11 -6 -25 -16 -24 -16 -27 2 -40 16 -13 17 -14 1
-9 -23 8 -69 -4 -62 -16 3 -5 -10 -17 -29 -27 -34 -16 -36 -16 -71 11 -36 28
-37 32 -20 98 7 28 7 28 -46 28 -37 0 -65 -7 -87 -20 -40 -25 -131 -60 -152
-60 -8 1 -28 19 -44 42 -28 41 -28 41 -8 57 103 82 252 209 268 228 7 8 22 16
35 18 13 3 29 11 34 18 6 7 25 19 43 26 19 8 32 21 32 31 0 11 14 24 40 34 26
10 38 20 34 29 -5 15 28 41 61 50 13 3 9 5 -12 6 -17 0 -35 -3 -38 -9 -10 -16
-38 -12 -31 5 3 10 -1 15 -13 15 -14 0 -17 6 -13 28 4 26 4 26 -12 7 -12 -15
-16 -17 -16 -5 -1 9 -5 6 -10 -8 -5 -12 -16 -22 -24 -22 -8 0 -20 -16 -27 -35
-8 -22 -16 -30 -20 -23 -5 8 -12 3 -20 -15 -6 -14 -15 -24 -19 -22 -5 3 -11
-6 -14 -19 -6 -24 -120 -126 -272 -244 -60 -47 -71 -52 -99 -45 -39 10 -152
10 -188 0 -32 -9 -43 7 -33 48 5 21 12 25 41 25 30 0 35 3 35 23 0 36 -24 116
-65 212 -47 113 -64 142 -87 148 -10 3 -17 11 -16 18 5 23 -48 41 -89 30 -28
-8 -39 -7 -45 2 -14 22 -3 39 34 52 31 10 40 10 49 -1 6 -8 21 -14 33 -13 11
0 15 3 9 6 -7 2 -13 13 -13 24 0 24 26 15 33 -12 6 -21 37 -27 36 -6 0 6 -7
48 -15 92 -9 44 -18 101 -21 127 -3 27 -11 49 -19 52 -8 3 -14 2 -14 -3 0 -11
-46 -31 -54 -24 -3 4 3 13 15 21 11 8 18 20 15 28 -7 18 13 29 27 15 19 -19
27 -12 27 20 0 18 -10 47 -22 67 -19 31 -19 34 -3 25 18 -11 40 5 235 167 19
16 35 28 37 27 1 -2 3 -63 5 -138 2 -127 1 -137 -21 -173 -13 -21 -26 -57 -28
-80 -9 -91 -10 -186 -2 -186 5 0 9 6 9 13 0 9 3 8 9 -2 5 -8 5 -27 0 -45 -11
-38 -11 -36 -1 -36 5 0 14 12 21 27 10 22 14 24 21 12 7 -10 14 -11 27 -3 14
8 22 5 41 -15 23 -25 23 -25 12 -2 -9 17 -9 25 -1 31 8 5 7 17 -4 45 -15 34
-15 37 -1 32 20 -8 20 -3 1 33 -14 28 -13 34 7 31 4 0 3 11 -3 26 -7 20 -7 29
1 31 8 3 7 11 -3 25 -17 27 -30 94 -21 108 4 7 6 81 5 167 l-2 155 33 29 c18
16 50 41 71 54 39 25 44 46 14 52 -10 2 -24 -8 -34 -25 -9 -15 -29 -38 -44
-51 l-29 -24 0 310 c0 320 5 402 24 402 6 -1 45 -14 86 -30z m-964 -21 c-9
-22 -15 -27 -15 -16 -1 21 18 61 25 54 3 -3 -2 -20 -10 -38z m267 -24 c21 -25
34 -45 29 -45 -13 0 -92 70 -92 82 0 20 28 4 63 -37z m-1236 -27 c-3 -8 -6 -5
-6 6 -1 11 2 17 5 13 3 -3 4 -12 1 -19z m-377 -10 c0 -13 -9 -34 -20 -48 l-20
-25 6 35 c10 52 34 80 34 38z m1323 -3 c-3 -9 -8 -14 -10 -11 -3 3 -2 9 2 15
9 16 15 13 8 -4z m-2963 -31 c0 -8 -7 -14 -15 -14 -15 0 -21 21 -9 33 10 9 24
-2 24 -19z m3319 -7 c0 -21 -1 -21 -9 -2 -12 28 -12 37 0 30 6 -3 10 -16 9
-28z m-3369 -3 c0 -8 -4 -12 -10 -9 -5 3 -10 10 -10 16 0 5 5 9 10 9 6 0 10
-7 10 -16z m2120 -43 c0 -13 -26 -32 -33 -24 -8 7 11 33 24 33 5 0 9 -4 9 -9z
m-2330 -37 c0 -3 -9 -17 -20 -31 -21 -27 -27 -15 -10 18 10 18 30 27 30 13z
m260 -25 c0 -6 -4 -7 -10 -4 -5 3 -10 11 -10 16 0 6 5 7 10 4 6 -3 10 -11 10
-16z m2090 -29 c-6 -23 -14 -40 -16 -37 -3 3 0 24 7 46 16 54 24 46 9 -9z
m-2120 30 c0 -5 -2 -10 -4 -10 -3 0 -8 5 -11 10 -3 6 -1 10 4 10 6 0 11 -4 11
-10z m3195 -20 c3 -5 1 -10 -4 -10 -6 0 -11 5 -11 10 0 6 2 10 4 10 3 0 8 -4
11 -10z m-723 -20 c-22 -19 -130 -55 -138 -47 -3 3 19 12 48 22 29 9 64 23 78
31 35 19 39 17 12 -6z m-2809 -6 c33 -8 91 -31 128 -50 38 -19 78 -34 89 -34
30 0 56 -45 41 -73 -10 -21 -11 -21 -6 -1 3 13 -2 31 -13 44 l-19 24 3 -35 c2
-19 1 -26 -2 -17 -3 9 -25 26 -50 37 -25 12 -42 25 -40 30 3 5 -8 11 -25 15
-42 8 -61 8 -56 -1 6 -9 -53 -10 -68 -2 -5 4 -19 5 -31 4 -11 -1 -26 5 -33 12
-13 15 -7 19 39 26 20 3 16 5 -17 12 -44 8 -59 25 -22 25 12 0 48 -7 82 -16z
m307 -209 c0 -8 -4 -15 -9 -15 -13 0 -22 16 -14 24 11 11 23 6 23 -9z m20 -96
c16 -12 35 -19 43 -16 10 4 14 0 13 -11 -4 -27 -34 -26 -67 2 -17 14 -35 26
-40 26 -6 0 -7 5 -4 10 9 15 23 12 55 -11z m-20 -29 c0 -5 -2 -10 -4 -10 -3 0
-8 5 -11 10 -3 6 -1 10 4 10 6 0 11 -4 11 -10z m89 -56 c2 -2 2 -7 -2 -10 -3
-3 -16 2 -29 11 l-23 17 25 -7 c14 -4 27 -9 29 -11z m1091 10 c0 -8 -63 -74
-71 -74 -14 0 -11 33 6 57 8 11 25 21 40 21 14 0 25 -2 25 -4z m2300 -85 c0
-3 -11 -4 -25 -1 -14 2 -22 8 -20 12 3 5 1 11 -5 15 -5 3 -10 16 -10 28 0 19
3 17 30 -13 16 -19 29 -38 30 -41z m-283 35 c-3 -3 -12 -4 -19 -1 -8 3 -5 6 6
6 11 1 17 -2 13 -5z m-132 -22 c-6 -4 -30 -24 -55 -44 -90 -72 -140 -125 -146
-156 -3 -17 -12 -33 -20 -36 -8 -3 -14 -12 -14 -19 0 -8 -7 -20 -15 -27 -8 -7
-15 -20 -15 -30 0 -10 -9 -28 -20 -41 -37 -45 -23 7 26 94 65 115 134 196 213
249 26 18 64 26 46 10z m-2984 -20 c-7 -2 -18 1 -23 6 -8 8 -4 9 13 5 13 -4
18 -8 10 -11z m3029 14 c0 -2 -7 -7 -16 -10 -8 -3 -12 -2 -9 4 6 10 25 14 25
6z m107 -72 c2 -7 -6 -10 -19 -9 -30 3 -30 3 -23 16 8 13 37 8 42 -7z m283
-66 c0 -13 -4 -17 -12 -12 -9 6 -9 3 1 -9 14 -18 9 -47 -10 -47 -6 0 -8 7 -5
16 4 9 2 22 -3 28 -5 6 -12 29 -16 51 l-8 40 27 -24 c14 -14 26 -33 26 -43z
m-395 -48 c0 -16 -6 -26 -17 -28 -12 -2 -16 1 -12 11 3 8 1 18 -5 22 -19 11
-12 26 12 23 16 -2 22 -10 22 -28z m-2125 -82 c-21 -40 -75 -117 -82 -118 -4
0 -12 8 -17 19 -7 13 -5 32 8 67 19 48 41 70 41 40 0 -23 9 -20 33 11 23 29
35 17 17 -19z m2526 21 c4 -7 1 -10 -7 -7 -8 3 -33 -5 -57 -18 l-42 -23 20 30
c22 30 72 41 86 18z m34 -35 c0 -8 -4 -13 -9 -9 -5 3 -16 -4 -24 -15 -7 -11
-17 -17 -20 -14 -4 4 -18 -1 -31 -10 -30 -19 -36 -20 -36 -3 0 11 93 67 113
67 4 0 7 -7 7 -16z m-40 -64 c0 -5 -5 -10 -11 -10 -5 0 -7 5 -4 10 3 6 8 10
11 10 2 0 4 -4 4 -10z m-581 -26 c3 -16 1 -17 -13 -5 -19 16 -21 34 -3 29 6
-3 14 -13 16 -24z m261 16 c0 -5 -2 -10 -4 -10 -3 0 -8 5 -11 10 -3 6 -1 10 4
10 6 0 11 -4 11 -10z m160 -4 c0 -2 -7 -7 -16 -10 -8 -3 -12 -2 -9 4 6 10 25
14 25 6z m-701 -94 c17 -43 34 -100 38 -127 3 -27 15 -57 25 -67 11 -11 31
-61 45 -111 30 -112 43 -354 23 -452 -21 -104 -6 -174 43 -196 23 -10 30 -51
14 -76 -5 -8 1 -22 15 -35 24 -23 35 -68 17 -68 -5 0 -9 -7 -9 -15 0 -19 -26
-19 -177 0 -166 22 -166 22 -160 47 6 21 4 21 -121 15 -166 -7 -176 -11 -120
-49 24 -16 61 -38 82 -50 38 -19 41 -19 69 -3 26 15 38 16 128 5 55 -7 102
-16 105 -21 3 -5 -2 -9 -10 -9 -9 0 -73 -28 -143 -62 -69 -34 -134 -63 -142
-64 -9 -1 -41 -11 -71 -23 -49 -19 -60 -20 -111 -9 -43 9 -70 9 -111 0 -97
-21 -142 -23 -208 -13 -96 15 -104 29 -95 156 6 83 11 105 31 132 13 17 34 35
46 39 13 4 44 24 70 46 48 40 62 65 115 200 15 37 31 68 35 68 5 0 6 5 3 10
-3 6 0 10 7 10 10 0 10 2 -1 9 -22 14 -5 80 24 91 17 7 22 14 18 30 -4 13 2
29 16 44 12 13 21 27 19 32 -1 5 3 19 10 32 14 25 51 29 82 10 25 -16 37 -4
44 41 7 46 72 140 103 147 13 4 29 17 33 30 6 14 18 24 30 24 11 0 20 4 20 9
0 4 16 33 36 63 35 54 37 55 73 48 20 -4 43 -11 52 -14 30 -13 29 22 -1 98
-27 67 -37 106 -26 106 2 0 18 -35 35 -78z m114 63 c-3 -9 -8 -14 -10 -11 -3
3 -2 9 2 15 9 16 15 13 8 -4z m-21 -103 c-2 -34 -23 -62 -45 -62 -6 0 -6 5 0
13 5 6 15 32 22 55 14 51 26 48 23 -6z m-525 -174 c4 -63 3 -88 -6 -88 -7 0
-11 20 -11 55 0 30 -4 55 -10 55 -10 0 -13 -11 -28 -84 -4 -22 -14 -42 -21
-44 -10 -3 -12 7 -7 49 4 30 4 49 -1 44 -4 -6 -33 -27 -65 -48 -31 -20 -59
-43 -61 -49 -4 -9 -6 -8 -6 2 0 8 17 53 39 100 22 47 40 81 40 75 0 -5 5 -3
10 5 7 11 10 12 10 2 0 -9 7 -11 22 -7 17 6 20 4 15 -9 -4 -9 -3 -16 2 -16 5
0 11 9 14 21 3 12 10 18 16 14 7 -4 11 6 11 29 0 19 -4 36 -10 38 -5 2 -7 14
-3 28 11 41 43 -71 50 -172z m1578 143 c3 -5 1 -12 -5 -16 -5 -3 -10 1 -10 9
0 18 6 21 15 7z m-968 -103 c-3 -8 -6 -5 -6 6 -1 11 2 17 5 13 3 -3 4 -12 1
-19z m1613 -29 c0 -14 -17 -10 -23 5 -4 10 -1 13 9 9 7 -3 14 -9 14 -14z
m-1067 -92 c3 -8 -1 -14 -9 -14 -15 0 -18 9 -7 20 9 9 10 9 16 -6z m987 -77
c0 -5 -5 -10 -11 -10 -5 0 -7 5 -4 10 3 6 8 10 11 10 2 0 4 -4 4 -10z m217
-102 c-3 -8 -6 -5 -6 6 -1 11 2 17 5 13 3 -3 4 -12 1 -19z m10 -79 c-16 -26
-27 -24 -27 5 0 19 4 23 19 19 17 -4 18 -8 8 -24z m-1308 -36 c0 -10 -4 -36
-8 -58 -8 -39 -8 -38 -9 18 0 31 4 57 9 57 5 0 9 -8 8 -17z m-1255 -57 c-35
-76 -23 -84 15 -10 16 33 30 52 31 43 0 -28 -22 -134 -33 -154 -10 -19 -11
-19 -17 4 -3 13 -14 29 -25 35 -10 6 -25 17 -33 24 -7 6 -17 12 -21 12 -4 0
-13 -6 -20 -12 -11 -11 -13 -10 -7 5 3 10 6 22 6 27 0 4 16 15 36 25 30 14 38
15 45 4 7 -11 9 -11 9 1 0 17 30 64 36 57 2 -2 -7 -30 -22 -61z m-2691 -80 c4
-10 1 -13 -9 -9 -7 3 -14 9 -14 14 0 14 17 10 23 -5z m87 -11 c13 -16 3 -20
-24 -9 -9 3 -13 10 -10 15 8 13 20 11 34 -6z m2483 -98 c3 -7 -1 -26 -9 -42
l-13 -30 2 42 c2 43 10 55 20 30z m31 -130 c-37 -49 -107 -76 -101 -38 3 20
30 51 45 51 5 0 17 9 27 20 16 18 21 19 33 6 12 -12 12 -17 -4 -39z m-275
-104 c-4 -25 4 -32 36 -31 19 1 38 -2 42 -6 14 -14 -22 -26 -59 -20 -20 3 -45
1 -55 -4 -16 -9 -19 -7 -18 16 0 19 8 31 25 39 31 15 30 15 29 6z m1146 -153
c26 -7 22 -8 -22 -9 -30 0 -53 3 -53 9 0 11 31 11 75 0z m-1371 -17 c4 -4 17
-8 29 -8 66 -4 78 -6 72 -15 -3 -5 -24 -14 -45 -20 -35 -9 -43 -8 -62 10 -27
25 -48 26 -48 1 0 -11 -5 -23 -12 -27 -7 -5 -9 0 -6 14 4 15 2 19 -11 16 -9
-2 2 5 24 16 45 22 49 23 59 13z m181 -6 c-11 -7 -31 -14 -45 -15 l-25 -1 25
14 c14 8 34 14 45 15 19 0 19 0 0 -13z"/>
<path d="M4720 3841 c0 -5 5 -13 10 -16 6 -3 10 -2 10 4 0 5 -4 13 -10 16 -5
3 -10 2 -10 -4z"/>
<path d="M3566 3158 c-10 -38 -6 -45 9 -18 17 29 18 40 6 40 -5 0 -11 -10 -15
-22z"/>
<path d="M3896 2923 c-6 -14 -5 -15 5 -6 7 7 10 15 7 18 -3 3 -9 -2 -12 -12z"/>
<path d="M4509 2013 c-13 -15 -12 -15 9 -4 23 12 28 21 13 21 -5 0 -15 -7 -22
-17z"/>
<path d="M2336 3623 c-10 -10 -7 -38 5 -50 10 -10 59 -6 58 6 -1 11 -56 50
-63 44z"/>
<path d="M2536 3596 l-30 -23 28 -7 c21 -5 31 -2 46 16 11 13 19 26 20 31 0
15 -36 6 -64 -17z"/>
<path d="M2498 3333 c7 -3 16 -2 19 1 4 3 -2 6 -13 5 -11 0 -14 -3 -6 -6z"/>
<path d="M4804 1915 c-16 -12 -16 -14 -3 -15 9 0 22 7 29 15 16 19 0 19 -26 0z"/>
<path d="M4790 1739 c-88 -63 -92 -75 -8 -22 42 26 77 51 77 56 1 13 -13 6
-69 -34z"/>
<path d="M4535 1562 c-19 -10 -25 -17 -16 -20 7 -2 23 5 34 17 25 24 23 25
-18 3z"/>
<path d="M5323 1563 c-15 -6 -17 -39 -3 -48 6 -3 11 -3 11 2 3 16 6 53 5 52 0
0 -7 -3 -13 -6z"/>
<path d="M4570 1315 c-7 -9 -11 -18 -8 -20 3 -3 11 1 18 10 7 9 11 18 8 20 -3
3 -11 -1 -18 -10z"/>
<path d="M5235 1309 c-4 -6 -5 -12 -2 -15 2 -3 7 2 10 11 7 17 1 20 -8 4z"/>
<path d="M5298 1163 c7 -3 16 -2 19 1 4 3 -2 6 -13 5 -11 0 -14 -3 -6 -6z"/>
<path d="M5243 1113 c9 -2 23 -2 30 0 6 3 -1 5 -18 5 -16 0 -22 -2 -12 -5z"/>
<path d="M5195 1100 c-3 -5 -2 -10 4 -10 5 0 13 5 16 10 3 6 2 10 -4 10 -5 0
-13 -4 -16 -10z"/>
<path d="M2892 905 c4 -4 3 -14 -3 -22 -7 -8 -8 -13 -1 -13 15 0 23 28 9 36
-7 4 -9 4 -5 -1z"/>
<path d="M3246 575 c-15 -23 -15 -24 1 -18 39 13 58 43 29 43 -7 0 -21 -11
-30 -25z"/>
<path d="M5376 6175 c-10 -7 -15 -18 -11 -24 3 -6 1 -11 -4 -11 -6 0 -11 5
-11 11 0 6 -13 1 -29 -10 -16 -12 -33 -21 -38 -21 -16 0 -44 -36 -36 -45 5 -4
2 -5 -4 -1 -7 4 -19 4 -25 -1 -7 -4 -15 -8 -18 -9 -17 -3 -40 -17 -40 -25 0
-4 8 -6 18 -3 14 5 14 4 2 -4 -9 -7 -19 -7 -25 -2 -7 6 -20 3 -36 -8 -13 -9
-42 -27 -64 -39 -22 -12 -39 -27 -37 -34 2 -7 -3 -9 -12 -6 -9 4 -15 1 -13 -6
1 -7 -4 -11 -11 -9 -7 1 -23 -4 -34 -12 -19 -14 -20 -16 -4 -22 9 -4 24 0 34
9 9 8 35 24 57 35 22 11 39 24 39 28 -1 5 2 8 8 6 13 -3 46 21 44 33 0 6 10
10 24 11 25 0 76 23 53 24 -24 0 -13 15 13 16 14 1 34 10 46 20 11 11 22 18
24 17 11 -7 24 -2 19 7 -3 6 1 10 9 10 9 0 15 6 14 13 -2 6 3 11 11 9 19 -4
91 28 91 40 0 5 4 7 9 3 5 -3 12 -1 16 5 10 15 -57 12 -79 -5z m24 -9 c0 -3
-4 -8 -10 -11 -5 -3 -10 -1 -10 4 0 6 5 11 10 11 6 0 10 -2 10 -4z"/>
<path d="M3180 6118 c-25 -22 -31 -31 -15 -19 51 36 69 51 64 55 -2 2 -24 -14
-49 -36z"/>
<path d="M2972 5961 c-20 -28 -20 -29 -2 -24 11 3 20 9 20 14 0 5 5 8 12 7 6
-2 14 5 16 15 6 27 -22 20 -46 -12z"/>
<path d="M2270 5956 c0 -2 7 -7 16 -10 8 -3 12 -2 9 4 -6 10 -25 14 -25 6z"/>
<path d="M2206 5927 c-36 -8 -62 -23 -101 -59 -29 -26 -55 -57 -58 -68 -4 -17
-2 -19 21 -14 15 4 32 10 37 14 6 3 28 12 50 19 31 10 49 26 77 67 20 30 34
53 30 53 -4 -1 -29 -6 -56 -12z"/>
<path d="M4445 5895 c-16 -7 -23 -14 -14 -14 8 -1 24 6 35 14 24 18 18 18 -21
0z"/>
<path d="M4459 5875 c-19 -11 -24 -21 -24 -54 0 -23 5 -41 10 -41 6 0 4 -4 -4
-9 -18 -11 -5 -31 20 -31 11 0 36 7 56 15 l36 15 -21 23 c-13 14 -22 36 -22
54 0 37 -17 46 -51 28z"/>
<path d="M925 5689 c-4 -6 -5 -13 -2 -16 7 -7 27 6 27 18 0 12 -17 12 -25 -2z"/>
<path d="M4775 5689 c-4 -6 -5 -12 -4 -13 29 -21 628 -230 636 -222 5 5 -101
56 -116 56 -5 0 -50 16 -98 36 -48 20 -126 49 -173 66 -47 16 -89 34 -94 39
-6 5 -21 9 -34 9 -15 0 -21 4 -16 11 5 9 -1 10 -20 5 -20 -5 -26 -3 -21 5 5 8
1 9 -15 4 -15 -5 -20 -4 -16 4 4 6 1 11 -8 11 -8 0 -18 -5 -21 -11z"/>
<path d="M1221 5584 c-17 -12 -25 -13 -36 -4 -12 10 -15 9 -15 -3 0 -9 -10
-19 -22 -23 -25 -7 -239 -146 -262 -170 -8 -8 -19 -14 -24 -14 -4 0 -31 -16
-58 -35 -27 -19 -57 -40 -68 -47 -10 -7 -37 -28 -60 -47 -22 -19 -70 -54 -106
-78 -36 -23 -95 -64 -132 -90 -174 -123 -280 -193 -302 -199 -14 -3 -27 -12
-30 -20 -3 -8 -13 -14 -23 -14 -13 0 -14 -3 -5 -8 8 -6 -1 -18 -33 -42 -26
-20 -45 -42 -45 -53 0 -18 2 -18 33 6 17 14 75 53 127 86 89 56 166 110 234
163 15 13 45 34 65 48 50 35 155 112 161 119 5 6 26 20 73 49 29 17 158 111
189 136 9 8 53 40 98 72 45 31 86 65 92 74 7 10 19 15 30 12 10 -2 18 0 18 6
0 5 21 19 48 30 54 24 89 48 81 56 -3 3 -15 -1 -28 -10z"/>
<path d="M1145 5579 c-4 -6 -5 -12 -2 -15 2 -3 7 2 10 11 7 17 1 20 -8 4z"/>
<path d="M754 5548 l-19 -23 23 19 c21 18 27 26 19 26 -2 0 -12 -10 -23 -22z"/>
<path d="M3270 5545 c7 -8 16 -12 21 -9 13 8 1 24 -18 24 -13 0 -13 -3 -3 -15z"/>
<path d="M704 5514 c-18 -14 -18 -15 4 -4 12 6 22 13 22 15 0 8 -5 6 -26 -11z"/>
<path d="M3230 5513 c0 -8 5 -11 10 -8 6 3 10 1 10 -4 0 -6 -4 -11 -9 -11 -5
0 -11 -9 -14 -20 -6 -23 -3 -24 22 -11 13 7 16 18 13 39 -4 29 -32 42 -32 15z"/>
<path d="M3400 5515 c0 -38 87 -112 117 -101 8 3 11 1 8 -4 -3 -6 -1 -10 5
-10 6 0 9 -4 5 -9 -3 -6 -1 -28 4 -50 7 -34 6 -39 -8 -33 -9 3 -24 15 -33 27
-13 16 -19 18 -29 8 -11 -11 -11 -13 0 -13 16 0 41 -25 41 -40 0 -7 -8 -10
-20 -7 -16 4 -20 0 -20 -19 0 -13 5 -24 10 -24 6 0 10 -7 10 -16 0 -8 16 -22
35 -30 29 -12 35 -19 32 -40 -2 -13 -12 -35 -22 -47 -11 -12 -18 -32 -17 -43
2 -12 -3 -24 -11 -27 -8 -3 -17 -15 -20 -26 -3 -12 -1 -19 4 -16 5 4 6 -7 3
-23 -3 -16 -1 -40 6 -52 6 -12 14 -34 16 -48 3 -15 15 -43 28 -62 19 -28 37
-40 94 -59 96 -32 112 -22 21 14 -70 27 -134 65 -111 65 6 0 3 20 -8 49 -23
65 -13 188 20 223 11 12 20 25 20 30 0 4 5 8 10 8 15 0 12 -21 -7 -42 -15 -17
-15 -19 1 -31 16 -12 16 -19 5 -74 -12 -59 -12 -61 17 -112 16 -29 43 -60 59
-69 16 -9 40 -27 52 -39 27 -26 34 -28 50 -12 9 9 18 6 38 -9 22 -18 23 -21 8
-24 -13 -3 -10 -6 9 -10 15 -3 25 -1 22 3 -3 5 2 9 10 9 22 0 20 22 -5 54 -11
15 -23 41 -25 59 -7 45 -12 57 -24 57 -5 0 -10 -15 -10 -33 0 -33 -24 -67 -47
-67 -6 0 -24 7 -39 15 -16 8 -25 15 -20 15 5 0 -5 13 -21 29 -51 48 -70 151
-28 151 16 0 22 50 8 64 -4 4 -8 15 -8 24 0 9 -6 16 -12 14 -7 -1 -13 3 -13 9
0 16 -62 79 -77 79 -7 0 -13 4 -13 8 0 5 -9 20 -21 33 -19 22 -19 24 -2 30 22
8 57 2 61 -10 2 -5 12 -7 23 -4 17 5 19 12 16 52 -7 81 -55 159 -91 145 -6 -2
-29 12 -50 31 -37 33 -56 43 -56 30z"/>
<path d="M615 5449 c-45 -34 -62 -49 -54 -49 3 0 30 18 59 40 29 22 49 40 44
39 -5 0 -27 -14 -49 -30z"/>
<path d="M5180 5466 c0 -15 12 -20 73 -31 21 -3 35 -10 32 -15 -3 -4 5 -6 17
-2 19 4 13 10 -37 33 -68 32 -85 35 -85 15z"/>
<path d="M6157 5421 c-32 -38 -30 -57 3 -53 31 3 32 4 28 48 l-3 38 -28 -33z"/>
<path d="M3305 5300 c3 -18 11 -42 18 -54 8 -12 18 -36 21 -54 4 -17 12 -32
17 -32 6 0 7 -5 4 -11 -4 -6 1 -17 11 -24 27 -20 40 -18 21 3 -18 19 -39 68
-42 96 -1 10 -10 25 -19 32 -9 6 -18 24 -20 38 -1 14 -5 29 -9 32 -3 3 -4 -8
-2 -26z"/>
<path d="M4942 5286 c8 -7 54 -28 103 -46 50 -18 96 -35 104 -38 9 -3 12 -1 7
6 -5 8 2 10 25 5 61 -12 21 14 -48 32 -38 9 -85 24 -105 32 -20 9 -44 13 -53
9 -9 -3 -13 -2 -10 4 3 6 -3 10 -15 10 -18 0 -19 -2 -8 -14z"/>
<path d="M4645 5198 c-33 -11 -116 -37 -185 -58 -119 -36 -124 -38 -98 -50 22
-10 30 -10 43 0 8 7 22 9 32 6 9 -4 19 -2 23 4 4 6 25 13 48 15 23 2 55 11 71
19 16 9 44 17 62 20 65 9 129 28 129 37 0 5 0 12 0 16 0 15 -67 10 -125 -9z"/>
<path d="M4815 5200 c-3 -4 -3 -15 1 -23 3 -8 -2 -17 -11 -21 -13 -4 -14 -10
-5 -26 6 -11 9 -21 8 -21 -2 -1 -16 -3 -32 -5 -39 -4 -51 -18 -30 -35 13 -10
16 -11 10 -1 -6 10 0 13 28 10 45 -4 48 -18 10 -38 -16 -8 -33 -21 -37 -27 -4
-7 -13 -13 -19 -13 -7 0 -7 5 1 14 8 10 9 16 1 21 -5 3 -10 0 -10 -7 -1 -7
-14 -29 -30 -48 -33 -38 -38 -64 -16 -86 13 -12 17 -10 35 12 12 15 21 33 21
40 0 16 9 17 29 5 11 -7 11 -15 0 -45 -7 -20 -19 -36 -26 -36 -25 0 -32 -34
-12 -60 10 -14 19 -31 19 -38 0 -9 7 -11 23 -6 48 14 68 51 21 40 -32 -8 -23
11 12 24 14 6 24 18 24 30 0 15 7 20 25 20 20 0 27 6 32 30 3 17 10 30 16 30
5 0 7 -13 3 -31 -5 -26 -3 -30 10 -25 14 5 15 4 5 -8 -7 -8 -10 -20 -6 -26 3
-5 -1 -10 -9 -10 -9 0 -13 6 -10 13 3 10 -3 13 -24 9 -24 -3 -29 -9 -29 -32 0
-18 4 -27 11 -22 6 3 3 -5 -6 -20 -18 -28 -15 -38 14 -38 11 0 18 -7 18 -20 0
-11 -6 -20 -14 -20 -11 0 -13 -14 -10 -67 3 -58 1 -65 -10 -51 -7 10 -17 14
-22 10 -4 -4 -2 1 5 11 12 15 11 17 -7 17 -12 0 -28 -13 -41 -36 -22 -37 -28
-74 -11 -74 6 0 10 9 10 20 0 11 4 20 9 20 14 0 20 -25 10 -41 -12 -19 -11
-42 1 -34 6 4 8 11 5 16 -4 5 1 9 9 9 9 0 16 5 16 11 0 5 5 7 11 4 6 -4 13 2
16 13 5 21 5 21 31 -3 l25 -23 31 21 c17 12 32 23 34 23 10 5 -24 87 -40 95
-19 10 -26 59 -8 59 6 0 17 18 26 39 18 46 40 58 65 35 10 -9 24 -14 31 -11 9
4 7 6 -4 6 -9 1 -20 5 -23 11 -3 5 0 7 8 4 8 -3 17 -1 20 3 9 15 -52 103 -83
121 -19 11 -30 25 -30 40 0 19 -5 22 -42 23 l-43 1 35 10 c64 18 76 25 77 48
l2 23 -15 -22 c-11 -14 -26 -21 -50 -21 -19 0 -34 5 -34 10 0 6 4 10 10 10 5
0 14 9 20 20 9 16 5 31 -20 75 -17 31 -29 59 -26 63 2 4 -4 8 -14 9 -11 1 -22
-2 -25 -7z m-85 -224 c0 -3 -4 -8 -10 -11 -5 -3 -10 -1 -10 4 0 6 5 11 10 11
6 0 10 -2 10 -4z m-10 -30 c0 -11 -19 -15 -25 -6 -3 5 1 10 9 10 9 0 16 -2 16
-4z m170 -160 c0 -3 -4 -8 -10 -11 -5 -3 -10 -1 -10 4 0 6 5 11 10 11 6 0 10
-2 10 -4z m17 -81 c-1 -39 -1 -39 -27 -25 -18 10 -18 11 3 35 12 13 23 25 24
25 0 0 1 -16 0 -35z m-7 -65 c0 -5 -5 -10 -11 -10 -5 0 -7 5 -4 10 3 6 8 10
11 10 2 0 4 -4 4 -10z"/>
<path d="M3480 5154 c-14 -7 -36 -14 -50 -14 -19 0 -21 -3 -11 -9 8 -5 21 -7
29 -3 10 3 13 1 8 -6 -9 -15 -4 -15 28 -1 14 7 24 19 23 30 -1 11 -1 19 -2 18
0 -1 -11 -7 -25 -15z"/>
<path d="M4565 5086 c-14 -21 -14 -27 1 -61 l15 -38 22 33 c29 45 46 74 44 76
-1 0 -17 4 -34 7 -27 5 -36 2 -48 -17z"/>
<path d="M3576 5045 c-3 -8 -1 -15 4 -15 6 0 10 7 10 15 0 8 -2 15 -4 15 -2 0
-6 -7 -10 -15z"/>
<path d="M4410 4896 c0 -7 9 -16 19 -19 17 -4 18 -2 8 14 -14 22 -27 25 -27 5z"/>
<path d="M4640 4864 c0 -2 9 -8 20 -14 11 -6 20 -7 20 -2 0 6 -9 12 -20 15
-11 3 -20 3 -20 1z"/>
<path d="M299 4713 c-13 -15 -12 -15 9 -4 23 12 28 21 13 21 -5 0 -15 -7 -22
-17z"/>
<path d="M2405 4630 c3 -5 11 -10 16 -10 6 0 7 5 4 10 -3 6 -11 10 -16 10 -6
0 -7 -4 -4 -10z"/>
<path d="M6125 4590 c-3 -5 -1 -10 4 -10 6 0 11 5 11 10 0 6 -2 10 -4 10 -3 0
-8 -4 -11 -10z"/>
<path d="M5157 4482 c22 -19 23 -25 17 -124 l-6 -103 52 -65 c81 -102 119
-126 159 -101 17 11 3 54 -64 190 -43 88 -75 129 -75 97 0 -9 5 -16 10 -16 10
0 53 -87 70 -140 4 -14 11 -34 16 -45 7 -20 7 -20 -14 -1 -12 11 -22 26 -22
34 0 9 -3 13 -6 9 -15 -15 -74 136 -74 188 0 36 -13 54 -55 79 l-30 17 22 -19z"/>
<path d="M5000 4458 c-40 -23 -78 -56 -90 -78 -6 -12 -3 -16 11 -16 10 0 19 4
19 7 0 4 10 11 23 15 12 3 34 15 49 25 14 11 29 19 32 19 14 0 4 -27 -14 -40
-11 -8 -20 -21 -20 -30 1 -11 6 -8 21 9 24 29 33 24 15 -9 -10 -22 -9 -29 7
-52 16 -22 24 -25 39 -17 10 5 16 15 12 21 -4 5 -1 14 6 18 7 4 14 28 17 52 5
40 2 47 -27 71 -37 32 -53 33 -100 5z"/>
<path d="M396 4274 c-9 -8 -16 -19 -16 -23 0 -3 -35 -33 -77 -66 -116 -88
-303 -248 -303 -257 0 -14 11 -5 205 152 99 81 192 153 205 160 33 17 31 15
24 34 -8 20 -18 20 -38 0z"/>
<path d="M4015 4260 c-4 -6 -11 -8 -16 -5 -5 4 -9 2 -9 -4 0 -5 -8 -12 -17
-16 -10 -3 -26 -17 -36 -31 -18 -24 -18 -27 -1 -62 9 -20 30 -48 47 -62 16
-14 44 -38 61 -53 17 -16 41 -36 54 -44 22 -15 32 -41 11 -27 -7 4 -10 -1 -7
-11 1 -10 10 -20 18 -22 12 -4 12 -3 1 5 -10 7 -10 11 -1 17 13 8 35 -19 35
-44 0 -8 7 -16 15 -18 13 -4 13 -3 0 6 -8 6 -13 11 -10 12 46 7 70 7 70 -1 0
-6 7 -10 15 -10 20 0 19 8 -7 47 -26 37 -35 41 -41 16 -3 -12 -5 -10 -6 7 -1
14 -6 32 -11 40 -8 12 -10 11 -10 -7 0 -13 -5 -23 -10 -23 -6 0 -8 11 -4 25 4
15 2 25 -5 25 -6 0 -11 8 -11 18 0 9 -17 35 -38 56 -37 40 -61 89 -56 120 3
19 -18 21 -49 4 -20 -10 -21 -10 -8 5 7 10 20 17 27 17 8 0 14 7 14 15 0 17
-6 19 -15 5z"/>
<path d="M39 4073 c-13 -16 -12 -17 4 -4 9 7 17 15 17 17 0 8 -8 3 -21 -13z"/>
<path d="M4027 3973 c-16 -15 -6 -33 16 -29 12 2 28 -1 35 -6 18 -15 15 -4 -7
20 -19 23 -33 27 -44 15z"/>
<path d="M5436 3947 c3 -10 9 -15 12 -12 3 3 0 11 -7 18 -10 9 -11 8 -5 -6z"/>
<path d="M1362 3930 c0 -14 2 -19 5 -12 2 6 2 18 0 25 -3 6 -5 1 -5 -13z"/>
<path d="M5758 3914 c-5 -4 -8 -32 -9 -63 0 -31 -4 -77 -8 -104 -6 -34 -4 -52
5 -65 7 -9 14 -27 14 -40 0 -18 -4 -22 -19 -17 -21 6 -31 -18 -30 -70 1 -29 1
-28 14 10 l13 40 7 -34 c7 -28 9 -31 18 -16 6 11 7 66 3 144 -5 82 -4 122 3
116 5 -5 11 -21 14 -35 2 -14 5 -5 5 20 1 51 -19 126 -30 114z"/>
<path d="M4981 3867 c15 -11 15 -14 0 -27 -8 -8 -17 -14 -18 -12 -12 10 -23
-3 -23 -27 0 -42 17 -82 48 -111 50 -47 67 -54 27 -12 -42 45 -39 71 6 57 20
-7 20 -8 5 -17 -15 -8 -12 -13 23 -38 21 -16 42 -37 45 -48 7 -20 79 -48 97
-37 5 4 28 -10 51 -30 34 -31 45 -36 71 -31 19 4 39 1 54 -9 25 -17 32 -41 8
-31 -8 3 -22 9 -30 12 -28 11 -15 -15 14 -31 18 -9 41 -12 60 -9 27 6 38 0 96
-55 53 -49 71 -60 89 -55 18 4 32 -4 65 -37 l41 -42 -1 94 c0 88 -1 92 -13 59
-19 -53 -38 -48 -70 17 -29 60 -44 76 -132 144 l-51 39 -46 -25 c-50 -29 -56
-25 -64 32 -3 22 -16 45 -31 59 -41 36 -157 92 -207 99 -35 6 -51 15 -76 46
-17 21 -37 39 -43 39 -6 0 -4 -6 5 -13z m143 -202 c39 -36 38 -47 -2 -19 -19
13 -49 54 -39 54 2 0 20 -16 41 -35z m193 -111 c-3 -3 -12 -4 -19 -1 -8 3 -5
6 6 6 11 1 17 -2 13 -5z m217 -119 c9 -14 13 -25 9 -25 -12 1 -46 50 -35 50 6
0 17 -11 26 -25z m56 -10 c0 -12 -19 -12 -23 0 -4 9 -1 12 9 8 7 -3 14 -7 14
-8z"/>
<path d="M414 3845 c-10 -15 -59 -60 -110 -101 -159 -126 -299 -245 -303 -257
-5 -14 4 -7 114 83 189 157 278 226 308 242 18 10 32 25 32 35 0 27 -23 26
-41 -2z"/>
<path d="M1104 3818 l-19 -23 23 19 c21 18 27 26 19 26 -2 0 -12 -10 -23 -22z"/>
<path d="M5100 3570 c0 -11 -4 -20 -10 -20 -21 0 -8 -22 40 -68 28 -26 50 -53
50 -59 0 -37 76 -83 84 -50 1 6 10 34 19 61 l15 49 -45 41 c-27 25 -62 45 -91
53 -62 16 -62 16 -62 -7z"/>
<path d="M5882 3491 c-7 -36 -10 -66 -8 -69 7 -6 29 104 24 119 -3 8 -10 -15
-16 -50z"/>
<path d="M475 3473 c-44 -31 -122 -90 -174 -132 -141 -114 -259 -207 -282
-223 -12 -7 -20 -21 -18 -30 3 -12 44 15 164 108 178 138 412 334 399 333 -5
0 -45 -25 -89 -56z"/>
<path d="M4941 3474 c0 -11 3 -14 6 -6 3 7 2 16 -1 19 -3 4 -6 -2 -5 -13z"/>
<path d="M5360 3369 c0 -5 8 -9 18 -9 10 0 28 -7 40 -16 26 -18 30 -4 5 18
-20 16 -63 22 -63 7z"/>
<path d="M5872 3290 c0 -14 2 -19 5 -12 2 6 2 18 0 25 -3 6 -5 1 -5 -13z"/>
<path d="M5861 3244 c0 -11 3 -14 6 -6 3 7 2 16 -1 19 -3 4 -6 -2 -5 -13z"/>
<path d="M20 2945 c-13 -14 -21 -25 -19 -25 3 0 20 11 39 25 19 14 27 25 19
25 -9 0 -26 -11 -39 -25z"/>
<path d="M267 2757 c-4 -10 -7 -26 -7 -35 1 -15 2 -15 11 1 6 10 9 25 7 35 -3
16 -4 15 -11 -1z"/>
<path d="M2 2682 c1 -46 5 -65 17 -72 14 -7 14 -13 4 -41 -7 -18 -10 -35 -8
-38 3 -2 5 2 5 10 0 12 2 11 11 -1 8 -12 9 -10 4 8 -4 14 -2 22 5 22 8 0 10 8
5 23 -3 12 -11 45 -17 72 -16 80 -28 88 -26 17z"/>
<path d="M197 2655 c-36 -25 -45 -35 -29 -35 8 1 79 60 71 60 -2 0 -21 -11
-42 -25z"/>
<path d="M166 2359 c-54 -13 -58 -18 -116 -125 -38 -73 -50 -104 -49 -137 0
-23 3 -36 6 -29 10 24 22 12 13 -14 -14 -36 -12 -47 6 -40 8 3 12 2 9 -4 -3
-6 -13 -10 -21 -10 -13 0 -15 -13 -13 -69 l3 -69 25 19 c13 10 31 19 39 19 12
0 13 3 5 11 -9 9 -18 8 -37 -5 -38 -24 -32 -11 14 30 22 20 40 43 40 50 0 16
26 19 35 4 3 -5 10 -10 14 -10 11 0 42 48 45 68 2 9 8 18 14 20 7 2 12 8 12
13 0 10 -87 -37 -105 -56 -5 -6 -18 -17 -27 -24 -15 -11 -16 -10 -5 18 6 16
14 28 19 25 4 -3 5 1 2 9 -3 8 -1 18 5 22 6 3 11 14 11 24 0 10 6 24 14 30 8
6 19 31 25 55 10 42 41 70 49 46 3 -7 12 -5 25 7 20 18 20 17 15 -4 -9 -35 22
-25 35 11 6 14 3 17 -8 12 -8 -3 -15 -1 -15 4 0 6 -26 8 -60 5 -49 -4 -58 -2
-54 10 4 8 15 15 25 15 11 0 30 7 43 15 23 15 50 15 91 -1 18 -7 19 -6 5 10
-12 15 -25 17 -75 13 -47 -4 -53 -3 -28 4 18 5 35 14 38 19 8 12 62 13 69 1 3
-4 31 -11 63 -15 31 -4 63 -12 70 -18 7 -6 13 -7 13 -3 0 4 18 -8 40 -25 42
-33 52 -54 23 -43 -17 5 -17 5 -1 -8 18 -15 21 -27 19 -71 -1 -21 -6 -28 -21
-28 -11 0 -20 -4 -20 -10 0 -5 -5 -9 -11 -7 -6 1 -17 -14 -24 -33 -6 -19 -19
-36 -28 -38 -10 -2 -17 -10 -17 -19 0 -9 -6 -13 -15 -9 -10 4 -15 -1 -15 -15
0 -11 -10 -23 -23 -28 -13 -5 -29 -16 -36 -25 -7 -9 -20 -16 -27 -16 -8 0 -23
-9 -34 -20 -21 -21 -55 -17 -46 6 8 20 -10 26 -27 9 -9 -9 -23 -12 -34 -8 -16
6 -16 5 -4 -10 8 -10 28 -17 47 -17 46 0 43 -17 -8 -39 -24 -10 -56 -30 -73
-45 -40 -35 -64 -36 -29 -2 13 14 13 16 1 16 -8 0 -17 -9 -20 -21 -3 -12 -12
-19 -22 -17 -17 3 -54 -46 -43 -58 11 -10 191 92 277 157 156 118 331 312 316
350 -13 35 -216 129 -250 115 -8 -3 -17 -1 -20 4 -8 12 -106 11 -159 -1z m-56
-94 c-9 -11 -9 -15 -1 -15 7 0 9 -5 5 -11 -3 -6 -1 -15 6 -19 7 -5 2 -7 -14
-7 -21 0 -24 2 -15 13 7 8 9 17 6 21 -7 6 10 33 20 33 3 0 0 -7 -7 -15z m-35
-135 c4 -6 -6 -10 -22 -9 -25 0 -26 1 -8 9 11 5 21 9 22 9 1 1 5 -3 8 -9z
m-52 -165 c-3 -9 -8 -14 -10 -11 -3 3 -2 9 2 15 9 16 15 13 8 -4z"/>
<path d="M457 2259 c7 -7 15 -10 18 -7 3 3 -2 9 -12 12 -14 6 -15 5 -6 -5z"/>
<path d="M880 2241 l-25 -7 33 -17 32 -18 0 26 c0 27 -1 27 -40 16z"/>
<path d="M444 2181 c0 -15 3 -17 13 -9 7 6 13 14 13 19 0 5 -6 9 -13 9 -7 0
-13 -9 -13 -19z"/>
<path d="M413 2152 c-6 -4 -13 -20 -15 -36 -2 -24 -11 -34 -47 -53 -1 -1 0 -7
4 -13 10 -16 54 38 55 66 0 11 5 25 12 32 13 13 9 16 -9 4z"/>
<path d="M212 2120 c0 -14 2 -19 5 -12 2 6 2 18 0 25 -3 6 -5 1 -5 -13z"/>
<path d="M606 2113 c-9 -26 -104 -129 -111 -121 -4 4 3 17 15 30 12 13 27 32
32 43 13 22 -30 -13 -127 -104 -67 -64 -182 -148 -292 -215 -40 -23 -69 -47
-65 -51 4 -5 1 -5 -5 -1 -20 11 -48 -10 -51 -38 -2 -31 9 -33 33 -6 32 35 29
12 -4 -29 -27 -34 -31 -47 -30 -90 1 -28 3 -51 4 -51 1 0 15 19 31 42 16 23
40 53 54 68 171 179 257 263 283 277 39 20 152 109 192 153 40 43 63 54 79 41
8 -7 22 -8 35 -3 21 7 20 9 -18 40 -46 37 -48 38 -55 15z"/>
<path d="M275 2050 c3 -5 8 -10 11 -10 2 0 4 5 4 10 0 6 -5 10 -11 10 -5 0 -7
-4 -4 -10z"/>
<path d="M302 2018 c-13 -13 -16 -38 -6 -38 8 0 33 32 34 43 0 11 -15 8 -28
-5z"/>
<path d="M230 1980 c0 -21 17 -46 25 -38 4 4 0 17 -9 30 -10 14 -16 17 -16 8z"/>
<path d="M95 1949 c-4 -6 -5 -12 -2 -15 2 -3 7 2 10 11 7 17 1 20 -8 4z"/>
<path d="M108 1872 c-28 -17 -36 -32 -18 -32 6 0 10 5 10 10 0 6 6 10 14 10 7
0 19 7 26 15 16 20 2 19 -32 -3z"/>
<path d="M1154 1725 c-18 -13 -18 -14 4 -8 12 3 25 9 28 14 8 14 -10 11 -32
-6z"/>
<path d="M1479 1559 l-44 -41 48 38 c26 21 47 40 47 41 0 8 -11 0 -51 -38z"/>
<path d="M706 1583 c-11 -11 -6 -23 9 -23 8 0 15 4 15 9 0 13 -16 22 -24 14z"/>
<path d="M1398 1497 c-15 -12 -40 -32 -55 -44 -16 -12 -22 -22 -15 -23 7 0 34
20 60 45 50 47 55 59 10 22z"/>
<path d="M161 1129 c-12 -12 -20 -24 -16 -27 3 -3 15 4 27 16 28 28 18 38 -11
11z"/>
<path d="M100 1075 c-8 -9 -8 -15 -2 -15 12 0 26 19 19 26 -2 2 -10 -2 -17
-11z"/>
</g>
</svg>
